<svg width="355" height="258" viewBox="0 0 355 258" fill="none" xmlns="http://www.w3.org/2000/svg">
    <path d="M0 0H355V258H0V0Z" fill="#D9D9D9"/>
    <g clip-path="url(#clip0_782_4115)">
        <path d="M196 143V115C196 112.8 194.2 111 192 111H164C161.8 111 160 112.8 160 115V143C160 145.2 161.8 147 164 147H192C194.2 147 196 145.2 196 143ZM171 132L176 138.02L183 129L192 141H164L171 132Z" fill="white"/>
    </g>
    <path d="M104.772 176.888H115.248V178.094H104.772V176.888ZM114.276 176.888H115.734V178.148C115.734 179.498 115.734 181.1 115.266 183.242L113.79 183.08C114.276 180.974 114.276 179.48 114.276 178.148V176.888ZM114.69 179.642V180.704L104.556 181.154L104.358 179.966L114.69 179.642ZM102.9 182.792H117.588V183.98H102.9V182.792ZM104.61 185.528H115.86V189.326H106.122V191.522H104.646V188.21H114.384V186.68H104.61V185.528ZM104.646 191.018H116.418V192.188H104.646V191.018ZM131.285 176.132H132.797V186.086H131.285V176.132ZM121.925 186.968H132.797V192.404H131.285V188.192H121.925V186.968ZM120.287 183.944H121.601C124.553 183.944 126.731 183.854 129.341 183.44L129.503 184.646C126.821 185.096 124.625 185.168 121.601 185.168H120.287V183.944ZM120.251 177.086H127.631V181.604H121.745V184.538H120.287V180.452H126.173V178.31H120.251V177.086ZM135.981 178.904H144.045V180.128H135.981V178.904ZM140.013 181.208C142.047 181.208 143.523 182.738 143.523 184.934C143.523 187.112 142.047 188.642 140.013 188.642C137.997 188.642 136.521 187.112 136.521 184.934C136.521 182.738 137.997 181.208 140.013 181.208ZM140.013 182.486C138.771 182.486 137.871 183.494 137.871 184.934C137.871 186.374 138.771 187.382 140.013 187.382C141.273 187.382 142.191 186.374 142.191 184.934C142.191 183.494 141.273 182.486 140.013 182.486ZM148.347 176.132H149.787V192.404H148.347V176.132ZM145.755 182.972H148.833V184.214H145.755V182.972ZM144.873 176.492H146.277V191.612H144.873V176.492ZM139.293 176.6H140.769V179.66H139.293V176.6ZM160.694 181.64H165.23V182.864H160.694V181.64ZM156.77 177.536H157.994V180.434C157.994 184.088 156.068 187.58 153.494 188.966L152.54 187.778C154.934 186.59 156.77 183.458 156.77 180.434V177.536ZM157.058 177.536H158.264V180.434C158.264 183.404 160.1 186.356 162.458 187.472L161.576 188.678C158.948 187.346 157.058 183.998 157.058 180.434V177.536ZM164.492 176.114H165.968V192.422H164.492V176.114ZM178.175 177.536H179.399V180.452C179.399 184.052 177.455 187.562 174.881 188.93L173.963 187.742C176.321 186.554 178.175 183.422 178.175 180.452V177.536ZM178.445 177.536H179.651V180.452C179.651 183.314 181.469 186.284 183.773 187.436L182.855 188.624C180.335 187.274 178.445 183.944 178.445 180.452V177.536ZM185.195 176.132H186.707V192.404H185.195V176.132ZM186.347 182.72H189.371V183.98H186.347V182.72ZM195.075 177.914H196.317V179.57C196.317 182.558 194.481 185.06 191.745 186.05L190.971 184.862C193.419 183.998 195.075 181.892 195.075 179.57V177.914ZM195.363 177.914H196.605V179.57C196.605 181.766 198.297 183.746 200.709 184.556L199.935 185.726C197.235 184.808 195.363 182.432 195.363 179.57V177.914ZM191.367 177.482H200.277V178.688H191.367V177.482ZM202.581 176.15H204.093V188.048H202.581V176.15ZM193.635 190.82H204.579V192.044H193.635V190.82ZM193.635 186.932H195.111V191.36H193.635V186.932ZM220.549 180.002H224.923V181.244H220.549V180.002ZM216.805 176.87C219.235 176.87 220.999 178.418 220.999 180.65C220.999 182.882 219.235 184.412 216.805 184.412C214.375 184.412 212.611 182.882 212.611 180.65C212.611 178.418 214.375 176.87 216.805 176.87ZM216.805 178.13C215.203 178.13 214.051 179.156 214.051 180.65C214.051 182.126 215.203 183.17 216.805 183.17C218.407 183.17 219.559 182.126 219.559 180.65C219.559 179.156 218.407 178.13 216.805 178.13ZM224.257 176.132H225.751V184.862H224.257V176.132ZM215.329 185.672H216.823V187.724H224.275V185.672H225.751V192.188H215.329V185.672ZM216.823 188.912V190.982H224.275V188.912H216.823ZM228.935 189.164H243.677V190.406H228.935V189.164ZM235.523 185.672H237.017V189.686H235.523V185.672ZM230.717 177.338H241.859V182.27H232.247V185.528H230.771V181.064H240.383V178.544H230.717V177.338ZM230.771 184.898H242.237V186.122H230.771V184.898ZM247.348 183.926H258.526V185.15H247.348V183.926ZM245.494 188.966H260.236V190.208H245.494V188.966ZM247.348 177.626H258.364V178.868H248.842V184.466H247.348V177.626Z" fill="#717171"/>
    <defs>
        <clipPath id="clip0_782_4115">
            <rect width="48" height="48" fill="white" transform="translate(154 105)"/>
        </clipPath>
    </defs>
</svg>
