<svg width="48" height="48" viewBox="0 0 48 48" fill="none" xmlns="http://www.w3.org/2000/svg">
    <path d="M20.9 27.1L15 24.45C14.8 24.35 14.7 24.2 14.7 24C14.7 23.8 14.8 23.65 15 23.55L20.9 20.85L23.55 15C23.65 14.8 23.8 14.7 24 14.7C24.2 14.7 24.35 14.8 24.45 15L27.15 20.85L33 23.55C33.2 23.65 33.3 23.8 33.3 24C33.3 24.2 33.2 24.35 33 24.45L27.15 27.1L24.45 33C24.35 33.2 24.2 33.3 24 33.3C23.8 33.3 23.65 33.2 23.55 33L20.9 27.1ZM24 46C20.2667 46 16.8333 45.15 13.7 43.45C10.5667 41.75 8 39.4833 6 36.65V40C6 40.5667 5.80833 41.0417 5.425 41.425C5.04167 41.8083 4.56667 42 4 42C3.43333 42 2.95833 41.8083 2.575 41.425C2.19167 41.0417 2 40.5667 2 40V32C2 31.4333 2.19167 30.9583 2.575 30.575C2.95833 30.1917 3.43333 30 4 30H12C12.5667 30 13.0417 30.1917 13.425 30.575C13.8083 30.9583 14 31.4333 14 32C14 32.5667 13.8083 33.0417 13.425 33.425C13.0417 33.8083 12.5667 34 12 34H9.05C10.65 36.4 12.7583 38.3333 15.375 39.8C17.9917 41.2667 20.8667 42 24 42C28.7 42 32.7417 40.4333 36.125 37.3C39.5083 34.1667 41.4333 30.3167 41.9 25.75C41.9667 25.2167 42.2 24.7917 42.6 24.475C43 24.1583 43.4667 24 44 24C44.5667 24 45.05 24.175 45.45 24.525C45.85 24.875 46.0167 25.3 45.95 25.8C45.7167 28.6333 44.9833 31.275 43.75 33.725C42.5167 36.175 40.9167 38.3083 38.95 40.125C36.9833 41.9417 34.725 43.375 32.175 44.425C29.625 45.475 26.9 46 24 46ZM24 6C19.3 6 15.2583 7.56667 11.875 10.7C8.49167 13.8333 6.56667 17.6833 6.1 22.25C6.03333 22.7833 5.8 23.2083 5.4 23.525C5 23.8417 4.53333 24 4 24C3.43333 24 2.95 23.825 2.55 23.475C2.15 23.125 1.98333 22.7 2.05 22.2C2.28333 19.3667 3.01667 16.725 4.25 14.275C5.48333 11.825 7.08333 9.69167 9.05 7.875C11.0167 6.05833 13.275 4.625 15.825 3.575C18.375 2.525 21.1 2 24 2C27.7333 2 31.1667 2.85 34.3 4.55C37.4333 6.25 40 8.51667 42 11.35V8C42 7.43333 42.1917 6.95833 42.575 6.575C42.9583 6.19167 43.4333 6 44 6C44.5667 6 45.0417 6.19167 45.425 6.575C45.8083 6.95833 46 7.43333 46 8V16C46 16.5667 45.8083 17.0417 45.425 17.425C45.0417 17.8083 44.5667 18 44 18H36C35.4333 18 34.9583 17.8083 34.575 17.425C34.1917 17.0417 34 16.5667 34 16C34 15.4333 34.1917 14.9583 34.575 14.575C34.9583 14.1917 35.4333 14 36 14H38.95C37.35 11.6 35.2417 9.66667 32.625 8.2C30.0083 6.73333 27.1333 6 24 6Z" fill="#B7B7B7"/>
</svg>
