<svg width="22" height="20" viewBox="0 0 22 20" fill="none" xmlns="http://www.w3.org/2000/svg">
    <path d="M1.76758 19.8908C1.34672 20.0684 0.946915 20.0294 0.568149 19.7736C0.189383 19.5187 0 19.1471 0 18.6586V13.6966C0 13.3858 0.0841703 13.1083 0.252511 12.8641C0.420851 12.6199 0.652319 12.4645 0.946915 12.3979L10.1004 10.0001L0.946915 7.60237C0.652319 7.53576 0.420851 7.38035 0.252511 7.13614C0.0841703 6.89192 0 6.61441 0 6.30359V1.34159C0 0.853157 0.189383 0.481062 0.568149 0.225303C0.946915 -0.029569 1.34672 -0.0681998 1.76758 0.109411L21.2109 8.76794C21.737 9.01215 22 9.42288 22 10.0001C22 10.5773 21.737 10.9881 21.2109 11.2323L1.76758 19.8908Z" fill="#D9D9D9"/>
</svg>
