<svg width="364" height="364" viewBox="0 0 364 364" fill="none" xmlns="http://www.w3.org/2000/svg">
    <path d="M231.584 113.444C231.584 113.444 235.814 110.532 252.07 124.175C268.326 137.818 268.974 150.186 268.974 150.186V96.2126C268.974 96.2126 260.522 72.8001 233.207 63.7001L231.584 113.444Z" fill="#D1D3D4"/>
    <path d="M268.975 150.696C268.845 150.696 268.721 150.646 268.627 150.557C268.534 150.467 268.478 150.345 268.473 150.216C268.473 150.092 267.614 137.898 251.729 124.568C236.208 111.53 231.891 113.852 231.847 113.874C231.766 113.92 231.674 113.945 231.581 113.945C231.488 113.945 231.396 113.92 231.315 113.874C231.236 113.828 231.171 113.762 231.126 113.683C231.082 113.604 231.059 113.514 231.061 113.422L232.684 63.6709C232.687 63.5918 232.708 63.5144 232.746 63.4448C232.784 63.3753 232.837 63.3156 232.902 63.2703C232.967 63.2251 233.042 63.1957 233.12 63.1843C233.199 63.173 233.279 63.1801 233.354 63.205C260.625 72.2904 269.361 95.8048 269.455 96.0378C269.466 96.0956 269.466 96.1548 269.455 96.2125V150.186C269.455 150.319 269.404 150.447 269.311 150.542C269.219 150.637 269.093 150.692 268.96 150.696H268.975ZM232.961 112.651C235.443 112.651 241.049 114.252 252.398 123.782C262.794 132.518 266.871 140.671 268.465 145.542V96.3072C267.905 94.8075 259.169 73.2004 233.689 64.3989L232.109 112.724C232.39 112.673 232.675 112.648 232.961 112.651Z" fill="#231F20"/>
    <path d="M102.408 131.768V83.7201C102.408 83.7201 128.245 73.5791 160.648 75.8723V121.991C160.648 121.991 124.976 122.959 102.408 131.768Z" fill="#D1D3D4"/>
    <path d="M102.408 132.299C102.304 132.3 102.203 132.269 102.117 132.212C102.049 132.165 101.993 132.102 101.955 132.028C101.917 131.954 101.898 131.873 101.898 131.79V83.72C101.898 83.6182 101.929 83.5187 101.986 83.4343C102.043 83.35 102.124 83.2847 102.219 83.2468C102.481 83.1449 128.543 73.0985 160.67 75.3626C160.798 75.3735 160.918 75.4317 161.005 75.5259C161.093 75.6202 161.142 75.7436 161.143 75.8722V121.991C161.143 122.124 161.091 122.251 160.999 122.346C160.907 122.441 160.781 122.497 160.648 122.501C160.291 122.501 124.816 123.585 102.59 132.285C102.531 132.3 102.469 132.305 102.408 132.299ZM102.918 84.0622V131.04C123.884 123.083 155.77 121.642 160.124 121.481V76.3454C130.371 74.3434 105.983 82.9265 102.918 84.0622Z" fill="#231F20"/>
    <path d="M80.029 158.522C80.029 158.522 62.6953 165.715 56.1506 186.98V144.457C56.1506 144.457 55.823 123.847 80.029 110.765V158.522Z" fill="#D1D3D4"/>
    <path d="M56.1506 187.489H56.056C55.9344 187.473 55.8229 187.413 55.7424 187.321C55.6619 187.228 55.6181 187.109 55.6192 186.987V144.457C55.6192 144.253 55.5682 123.396 79.7669 110.314C79.8439 110.277 79.9288 110.261 80.0139 110.265C80.099 110.27 80.1815 110.296 80.2539 110.341C80.3263 110.386 80.3864 110.448 80.4285 110.522C80.4706 110.597 80.4934 110.68 80.4949 110.765V158.522C80.495 158.622 80.4653 158.72 80.4095 158.803C80.3538 158.886 80.2745 158.95 80.1819 158.988C80.0144 159.061 62.9865 166.355 56.5947 187.132C56.5637 187.229 56.5052 187.314 56.4262 187.377C56.3473 187.441 56.2514 187.48 56.1506 187.489ZM79.5194 111.624C56.6456 124.415 56.6602 144.246 56.6602 144.45V183.907C63.2559 166.377 77.248 159.25 79.5194 158.194V111.624Z" fill="#231F20"/>
    <path d="M56.1504 144.457C56.1504 144.457 60.4019 162.948 76.7601 169.078V218.822C76.7601 218.822 58.116 205.951 56.1504 186.98V144.457Z" fill="white"/>
    <path d="M76.7599 219.332C76.6564 219.332 76.555 219.302 76.4687 219.245C76.2794 219.113 57.6062 206.017 55.6406 187.031V144.457C55.6398 144.331 55.6854 144.21 55.7687 144.116C55.8521 144.022 55.9672 143.962 56.092 143.947C56.2164 143.934 56.3416 143.966 56.4436 144.039C56.5456 144.111 56.6174 144.219 56.6453 144.341C56.689 144.523 61.0133 162.643 76.9346 168.598C77.0331 168.633 77.1181 168.699 77.178 168.785C77.2379 168.871 77.2699 168.973 77.2695 169.078V218.822C77.2684 218.915 77.2421 219.007 77.1934 219.086C77.1447 219.166 77.0754 219.23 76.9929 219.274C76.922 219.314 76.8414 219.334 76.7599 219.332ZM56.6598 147.784V187.001C58.3415 203.229 72.6758 215.117 76.2503 217.839V169.427C64.2165 164.754 58.7055 153.353 56.6598 147.784Z" fill="#231F20"/>
    <path d="M190.793 167.302C190.793 167.302 210.485 233.834 218.457 237.19C226.429 240.546 238.666 231.584 239.707 225.906C240.748 220.227 224.696 154.438 224.696 154.438L190.793 167.302Z" fill="white"/>
    <path d="M222.286 238.413C220.903 238.425 219.532 238.16 218.253 237.634C214.809 236.178 209.058 223.918 201.152 201.154C195.328 184.286 190.349 167.615 190.298 167.447C190.264 167.324 190.277 167.192 190.335 167.078C190.393 166.963 190.491 166.874 190.611 166.828L224.506 153.943C224.572 153.914 224.642 153.899 224.714 153.899C224.785 153.899 224.856 153.914 224.921 153.943C224.986 153.977 225.043 154.025 225.088 154.083C225.133 154.14 225.166 154.207 225.183 154.278C225.839 156.964 241.243 220.235 240.202 225.957C239.612 229.167 235.798 233.237 230.913 235.908C228.278 237.419 225.32 238.278 222.286 238.413ZM191.411 167.607C192.241 170.396 196.806 185.531 202.113 200.819C212.349 230.303 216.862 235.952 218.646 236.695C221.769 238.005 226.064 237.423 230.425 235.035C234.982 232.56 238.673 228.679 239.197 225.796C239.998 221.428 229.901 177.974 224.332 155.1L191.411 167.607Z" fill="#231F20"/>
    <path d="M224.748 222.768C223.918 201.197 257.442 171.553 257.442 171.553L275.824 183.201C275.824 183.201 262.181 222.091 248.757 235.231C242.176 241.696 225.264 236.01 224.748 222.768Z" fill="white"/>
    <path d="M241.354 238.413C239.149 238.393 236.968 237.955 234.926 237.124C229.953 235.144 224.53 230.339 224.238 222.804C223.889 213.734 229.334 202.282 240.393 188.77C245.548 182.519 251.144 176.643 257.137 171.189C257.22 171.117 257.324 171.072 257.434 171.063C257.544 171.054 257.654 171.08 257.748 171.138L276.123 182.786C276.221 182.846 276.296 182.939 276.334 183.047C276.373 183.156 276.373 183.275 276.334 183.383C276.196 183.776 262.502 222.535 249.143 235.61C247.013 237.526 244.217 238.532 241.354 238.413ZM225.258 222.768C225.534 229.815 230.623 234.314 235.304 236.178C240.298 238.165 245.562 237.634 248.408 234.867C260.886 222.652 273.728 187.482 275.184 183.412L257.494 172.208C254.254 175.12 224.486 202.741 225.258 222.768Z" fill="#231F20"/>
    <path d="M239.3 234.525C239.193 234.525 239.089 234.492 239.002 234.431C238.945 234.391 238.897 234.341 238.86 234.283C238.823 234.225 238.799 234.159 238.788 234.091C238.777 234.023 238.78 233.954 238.797 233.887C238.813 233.82 238.843 233.757 238.885 233.703C239.147 233.331 265.37 196.429 270.189 175.324C270.199 175.254 270.223 175.187 270.26 175.127C270.297 175.067 270.346 175.015 270.404 174.975C270.463 174.935 270.528 174.908 270.598 174.894C270.667 174.881 270.738 174.882 270.807 174.898C270.876 174.913 270.941 174.943 270.997 174.985C271.054 175.027 271.102 175.081 271.137 175.142C271.171 175.203 271.193 175.271 271.201 175.341C271.208 175.412 271.201 175.483 271.179 175.55C266.316 196.851 239.977 233.921 239.715 234.292C239.671 234.362 239.609 234.42 239.537 234.461C239.465 234.502 239.383 234.524 239.3 234.525Z" fill="#D1D3D4"/>
    <path d="M197.542 181.236C212.559 181.236 224.733 169.062 224.733 154.045C224.733 139.028 212.559 126.854 197.542 126.854C182.525 126.854 170.352 139.028 170.352 154.045C170.352 169.062 182.525 181.236 197.542 181.236Z" fill="#231F20"/>
    <path d="M197.542 181.745C192.06 181.754 186.699 180.136 182.137 177.097C177.575 174.058 174.017 169.733 171.913 164.671C169.809 159.609 169.254 154.036 170.318 148.659C171.382 143.281 174.018 138.34 177.891 134.461C181.764 130.581 186.701 127.938 192.077 126.865C197.453 125.793 203.026 126.339 208.092 128.435C213.157 130.531 217.487 134.082 220.534 138.639C223.58 143.197 225.206 148.556 225.206 154.037C225.199 161.376 222.283 168.413 217.098 173.606C211.913 178.799 204.881 181.726 197.542 181.745ZM197.542 127.356C192.263 127.355 187.102 128.919 182.712 131.851C178.322 134.783 174.9 138.951 172.88 143.828C170.859 148.705 170.33 154.072 171.359 159.25C172.389 164.427 174.931 169.183 178.664 172.916C182.396 176.649 187.152 179.191 192.33 180.221C197.508 181.25 202.875 180.721 207.752 178.7C212.629 176.679 216.797 173.258 219.729 168.868C222.661 164.478 224.225 159.317 224.224 154.037C224.214 146.964 221.4 140.183 216.398 135.182C211.397 130.18 204.616 127.366 197.542 127.356Z" fill="#231F20"/>
    <path d="M158.98 134.047C158.98 134.047 120.484 145.178 112.963 164.797C105.443 184.417 129.707 284.007 129.707 284.007C129.707 284.007 171.393 306.102 213.26 282.879C213.26 282.879 225.039 198.489 218.822 177.224C212.605 155.959 198.329 135.19 189.382 132.088C180.434 128.987 158.98 134.047 158.98 134.047Z" fill="white"/>
    <path d="M171.887 293.945C147.79 293.945 129.757 284.604 129.481 284.48C129.416 284.448 129.36 284.402 129.316 284.346C129.272 284.289 129.241 284.223 129.226 284.153C129.16 283.905 123.089 258.928 118.015 231.875C111.193 195.475 109.329 172.864 112.482 164.637C115.634 156.411 124.428 148.621 138.566 141.625C145.099 138.424 151.877 135.746 158.833 133.617C159.714 133.406 180.557 128.521 189.533 131.666C199.128 135 213.317 156.68 219.294 177.144C225.475 198.256 214.234 279.567 213.754 283.017C213.744 283.096 213.715 283.171 213.669 283.236C213.624 283.301 213.563 283.353 213.492 283.389C200.757 290.414 186.43 294.049 171.887 293.945ZM130.158 283.658C133.346 285.259 173.219 304.362 212.807 282.559C213.535 277.463 224.295 197.71 218.347 177.37C211.89 155.268 197.65 135.488 189.227 132.561C180.623 129.577 159.729 134.396 159.103 134.542C158.251 134.789 120.737 145.942 113.435 164.979C106.228 183.776 128.854 278.336 130.158 283.658Z" fill="#231F20"/>
    <path d="M195.162 289.314C195.096 289.315 195.03 289.303 194.968 289.278C194.906 289.254 194.85 289.217 194.803 289.17C194.755 289.123 194.717 289.068 194.692 289.006C194.666 288.945 194.653 288.879 194.653 288.812C194.653 287.727 192.709 180.129 191.573 171.604C190.343 162.388 170.374 154.554 170.17 154.482C170.044 154.433 169.942 154.337 169.886 154.213C169.831 154.09 169.827 153.949 169.875 153.823C169.924 153.696 170.02 153.594 170.144 153.539C170.267 153.484 170.408 153.48 170.534 153.528C171.386 153.856 191.268 161.652 192.585 171.466C193.728 180.013 195.592 284.306 195.672 288.761C195.673 288.828 195.661 288.895 195.636 288.957C195.611 289.019 195.575 289.076 195.528 289.124C195.481 289.172 195.426 289.21 195.364 289.237C195.303 289.263 195.237 289.277 195.17 289.278L195.162 289.314Z" fill="#D1D3D4"/>
    <path d="M149.166 132.081L150.797 155.632C150.797 155.632 160.494 165.984 170.351 164.797C181.067 163.472 188.762 155.61 188.762 155.61L187.27 139.114L149.166 132.081Z" fill="#231F20"/>
    <path d="M168.698 165.402C159.343 165.402 150.804 156.389 150.425 155.981C150.343 155.897 150.294 155.786 150.287 155.668L148.656 132.117C148.649 132.04 148.661 131.962 148.69 131.89C148.719 131.818 148.765 131.754 148.824 131.702C148.882 131.652 148.951 131.615 149.025 131.594C149.099 131.573 149.177 131.567 149.253 131.579L187.364 138.611C187.473 138.631 187.572 138.686 187.647 138.767C187.722 138.849 187.768 138.952 187.779 139.063L189.279 155.559C189.287 155.632 189.278 155.707 189.253 155.776C189.227 155.846 189.186 155.908 189.133 155.959C188.813 156.287 181.19 163.967 170.423 165.3C169.851 165.37 169.275 165.404 168.698 165.402ZM151.291 155.413C152.442 156.586 161.396 165.394 170.292 164.288C179.851 163.108 187.036 156.535 188.23 155.413L186.774 139.543L149.697 132.7L151.291 155.413Z" fill="#231F20"/>
    <path d="M195.94 183.456C195.94 183.456 174.421 190.321 174.188 218.131C173.955 245.94 193.072 239.556 204.116 230.397C215.16 221.239 216.878 207.662 215.895 199.479C214.912 191.297 209.663 179.518 195.94 183.456Z" fill="white"/>
    <path d="M186.44 238.697C184.712 238.723 183.001 238.363 181.431 237.641C176.175 235.144 173.591 228.592 173.678 218.109C173.911 190.256 195.569 183.027 195.787 182.954C200.716 181.549 204.975 182 208.44 184.301C214.621 188.414 216.084 196.909 216.382 199.414C217.518 208.878 214.97 222.04 204.429 230.776C199.558 234.824 192.562 238.697 186.44 238.697ZM196.093 183.929C195.627 184.082 174.923 191.209 174.697 218.145C174.617 228.192 177.027 234.452 181.868 236.753C188.347 239.832 197.731 235.049 203.795 230.019C213.987 221.538 216.492 208.725 215.385 199.559C215.101 197.164 213.711 189.04 207.887 185.174C204.683 183.019 200.716 182.604 196.093 183.929Z" fill="#231F20"/>
    <path d="M210.661 207C210.268 215.19 201.845 227.165 195.956 229.451C192.352 230.849 187.533 232.043 184.395 228.585C182.408 226.401 181.097 222.287 181.221 215.16C181.549 196.851 195.162 191.777 199.042 190.962C200.835 190.681 202.671 191.017 204.248 191.915C207.72 193.764 211.076 198.249 210.661 207Z" fill="white"/>
    <path d="M189.854 231.344C188.767 231.383 187.684 231.188 186.679 230.771C185.674 230.353 184.77 229.725 184.03 228.927C181.715 226.357 180.609 221.727 180.725 215.153C181.096 194.449 198.197 190.62 198.925 190.467C200.834 190.163 202.789 190.515 204.472 191.464C207.173 192.92 211.643 196.837 211.156 207.021C210.741 215.648 202.056 227.624 196.122 229.932C194.135 230.775 192.012 231.254 189.854 231.344ZM200.199 191.355C199.837 191.353 199.476 191.389 199.122 191.464C198.394 191.61 182.057 195.264 181.701 215.175C181.591 221.479 182.611 225.877 184.744 228.243C187.743 231.555 192.46 230.252 195.736 228.971C201.349 226.787 209.736 215.044 210.122 206.963C210.58 197.346 206.482 193.684 203.977 192.359C202.816 191.729 201.521 191.384 200.199 191.355Z" fill="#231F20"/>
    <path d="M210.661 207C210.268 215.19 201.845 227.165 195.955 229.451C192.352 230.849 187.532 232.043 184.395 228.585C187.867 228.956 193.036 227.697 198.671 220.184C206.213 210.123 206.817 199.166 204.247 191.915C207.72 193.765 211.076 198.249 210.661 207Z" fill="#231F20"/>
    <path d="M189.855 231.344C188.768 231.383 187.685 231.188 186.68 230.77C185.675 230.353 184.771 229.725 184.031 228.927C183.961 228.851 183.916 228.755 183.901 228.652C183.887 228.549 183.904 228.444 183.951 228.352C184 228.261 184.074 228.186 184.164 228.136C184.255 228.087 184.358 228.066 184.461 228.075C187.708 228.425 192.731 227.282 198.293 219.878C205.981 209.628 206.177 198.802 203.797 192.09C203.761 191.993 203.756 191.887 203.782 191.787C203.808 191.687 203.864 191.597 203.942 191.529C204.021 191.463 204.118 191.422 204.22 191.41C204.322 191.398 204.426 191.417 204.517 191.464C207.218 192.92 211.688 196.837 211.2 207.021C210.785 215.648 202.1 227.624 196.167 229.931C194.166 230.78 192.027 231.259 189.855 231.344ZM185.779 229.16C188.756 231.293 192.833 230.128 195.767 228.992C201.38 226.808 209.766 215.066 210.152 206.985C210.545 198.737 207.582 194.871 205.151 193.102C207.138 200.105 206.512 210.574 199.079 220.504C193.99 227.274 189.237 229.051 185.779 229.145V229.16Z" fill="#231F20"/>
    <path d="M97.1504 203.068C97.1504 203.068 99.4436 272.41 106.287 277.645C113.13 282.879 127.253 277.317 129.692 272.083C132.131 266.848 133.223 199.137 133.223 199.137L97.1504 203.068Z" fill="white"/>
    <path d="M113.436 280.28C110.786 280.385 108.175 279.617 106.003 278.096C103.033 275.832 100.558 262.502 98.6502 238.478C97.2306 220.679 96.6482 203.301 96.6409 203.127C96.6366 202.997 96.6815 202.871 96.7667 202.774C96.8519 202.677 96.9709 202.615 97.0996 202.602L133.15 198.678C133.222 198.671 133.295 198.678 133.364 198.701C133.434 198.723 133.497 198.76 133.551 198.81C133.605 198.858 133.648 198.917 133.677 198.984C133.705 199.051 133.72 199.123 133.718 199.195C133.674 201.962 132.633 267.074 130.18 272.345C128.804 275.308 124.079 278.3 118.685 279.625C116.967 280.052 115.205 280.272 113.436 280.28ZM97.6819 203.52C97.7839 206.432 98.4099 222.222 99.6621 238.354C102.137 269.462 105.086 276.072 106.622 277.244C109.315 279.297 113.625 279.792 118.437 278.598C123.475 277.361 128.025 274.529 129.255 271.872C131.134 267.838 132.313 223.248 132.684 199.712L97.6819 203.52Z" fill="#231F20"/>
    <path d="M121.771 258.171C136.572 242.46 181.213 245.591 181.213 245.591L185.799 266.848C185.799 266.848 148.504 284.379 129.743 284.007C120.512 283.825 112.693 267.802 121.771 258.171Z" fill="white"/>
    <path d="M130.311 284.524H129.714C125.288 284.437 120.978 280.884 118.685 275.475C116.61 270.539 116.239 263.31 121.407 257.828C127.632 251.218 139.607 247.069 156.999 245.489C165.065 244.782 173.171 244.648 181.256 245.088C181.366 245.096 181.47 245.139 181.553 245.211C181.636 245.284 181.693 245.381 181.715 245.489L186.309 266.754C186.334 266.867 186.319 266.985 186.268 267.088C186.216 267.192 186.13 267.274 186.025 267.322C185.639 267.489 149.173 284.524 130.311 284.524ZM172.309 245.86C158.564 245.86 132.604 247.418 122.15 258.52C117.309 263.652 117.673 270.437 119.624 275.075C121.706 280.032 125.768 283.425 129.736 283.498C147.208 283.884 181.3 268.37 185.224 266.564L180.798 246.064C179.749 246.013 176.633 245.86 172.302 245.86H172.309Z" fill="#231F20"/>
    <path d="M124.91 277.077C124.781 277.081 124.655 277.037 124.557 276.951C124.46 276.866 124.398 276.747 124.385 276.619C124.372 276.49 124.409 276.361 124.487 276.258C124.566 276.155 124.681 276.086 124.808 276.065C125.245 275.985 168.241 267.416 181.723 258.731C181.837 258.658 181.976 258.633 182.108 258.661C182.241 258.69 182.356 258.77 182.43 258.884C182.503 258.998 182.528 259.136 182.499 259.269C182.471 259.401 182.391 259.517 182.277 259.59C168.627 268.377 126.781 276.72 125.005 277.062L124.91 277.077Z" fill="#D1D3D4"/>
    <path d="M180.018 248.976C180.018 248.976 189.381 240.204 193.53 236.738C197.68 233.273 205.972 228.476 205.753 232.625C205.535 236.775 197.84 238.871 197.541 240C197.541 240 213.303 237.561 220.648 240C227.994 242.439 229.959 244.368 227.775 245.598C225.591 246.828 217.532 243.96 213.82 244.397C210.107 244.834 206.627 245.598 206.627 245.598C206.627 245.598 219.491 246.326 223.633 248.976C227.775 251.626 229.522 254.21 226.909 255.084C224.295 255.958 216.222 249.631 208.367 250.716C208.367 250.716 225.184 256.169 224.732 260.529C224.281 264.89 222.461 264.235 220.648 263.143C218.835 262.051 210.092 258.331 206.161 257.676C206.161 257.676 224.084 272.09 219.265 272.964C214.446 273.837 204.312 262.932 204.312 262.932C204.312 262.932 184.809 272.09 180.011 266.645C175.214 261.199 180.018 248.976 180.018 248.976Z" fill="#231F20"/>
    <path d="M218.728 273.517C213.952 273.517 205.776 265.196 204.204 263.543C201.489 264.781 184.33 272.279 179.641 266.972C174.691 261.352 179.35 249.296 179.547 248.772C179.575 248.701 179.617 248.637 179.67 248.583C179.765 248.495 189.091 239.759 193.204 236.331C195.948 234.037 202.806 229.444 205.332 230.71C205.669 230.891 205.94 231.174 206.108 231.517C206.275 231.861 206.33 232.249 206.264 232.625C206.104 235.69 202.406 237.656 199.952 238.951L199.508 239.192C204.037 238.617 214.935 237.546 220.81 239.49C228.92 242.184 229.072 243.858 229.123 244.397C229.174 244.936 229.007 245.482 228.024 246.02C226.677 246.748 223.838 246.239 220.54 245.627C218.058 245.169 215.488 244.695 213.886 244.899C212.663 245.037 211.455 245.219 210.399 245.394C214.571 245.831 221.101 246.763 223.911 248.539C225.782 249.719 228.883 251.99 228.643 253.955C228.577 254.465 228.257 255.164 227.07 255.557C225.884 255.95 223.933 255.171 221.29 254.065C218.313 252.813 214.738 251.32 211.098 251.116C215.968 252.893 225.658 256.897 225.25 260.58C225.039 262.641 224.522 263.813 223.612 264.264C222.702 264.715 221.472 264.228 220.395 263.58C216.482 261.598 212.405 259.961 208.208 258.687C220.657 268.952 220.686 271.966 220.584 272.519C220.51 272.785 220.355 273.022 220.141 273.196C219.928 273.371 219.665 273.475 219.39 273.495C219.17 273.522 218.949 273.529 218.728 273.517ZM204.32 262.415C204.391 262.415 204.46 262.43 204.524 262.459C204.588 262.487 204.645 262.53 204.692 262.582C207.465 265.553 215.459 273.138 219.186 272.454C219.536 272.396 219.565 272.272 219.572 272.228C220.031 270.445 211.819 262.881 205.842 258.076C205.755 258.005 205.694 257.907 205.668 257.798C205.642 257.689 205.652 257.575 205.696 257.472C205.742 257.367 205.821 257.281 205.922 257.227C206.022 257.173 206.137 257.154 206.25 257.173C210.137 257.821 218.982 261.541 220.912 262.706C221.705 263.187 222.593 263.638 223.147 263.354C223.525 263.165 224.02 262.509 224.231 260.478C224.522 257.566 214.563 253.257 208.215 251.196C208.106 251.162 208.012 251.091 207.948 250.996C207.885 250.901 207.856 250.786 207.866 250.672C207.875 250.556 207.923 250.447 208.002 250.362C208.082 250.278 208.188 250.223 208.303 250.206C213.137 249.537 218.08 251.611 221.683 253.118C223.933 254.057 225.877 254.88 226.779 254.574C227.325 254.392 227.616 254.137 227.66 253.846C227.748 253.118 226.685 251.495 223.394 249.413C219.412 246.901 206.752 246.122 206.65 246.115C206.523 246.114 206.401 246.065 206.308 245.978C206.215 245.891 206.158 245.772 206.148 245.646C206.138 245.519 206.175 245.393 206.254 245.292C206.332 245.192 206.445 245.124 206.57 245.103C206.606 245.103 210.123 244.331 213.814 243.902C215.583 243.691 218.225 244.178 220.781 244.63C223.489 245.132 226.554 245.7 227.587 245.132C227.857 244.987 228.184 244.754 228.162 244.499C228.141 244.244 227.66 242.824 220.54 240.466C213.42 238.107 197.827 240.466 197.674 240.466C197.59 240.477 197.505 240.468 197.425 240.44C197.346 240.412 197.274 240.366 197.215 240.305C197.161 240.241 197.122 240.164 197.103 240.082C197.084 240 197.085 239.914 197.106 239.832C197.252 239.272 197.95 238.879 199.53 238.041C201.772 236.847 205.165 235.049 205.296 232.56C205.332 231.832 205.041 231.664 204.925 231.606C203.367 230.82 197.725 233.914 193.91 237.095C190.095 240.276 181.461 248.343 180.508 249.231C180.064 250.425 176.14 261.374 180.457 266.266C182.277 268.333 186.914 268.348 193.866 266.31C197.378 265.251 200.815 263.957 204.153 262.437C204.208 262.421 204.264 262.414 204.32 262.415Z" fill="#231F20"/>
    <path d="M197.687 87.6003C197.687 87.6003 200.519 114.857 199.871 129.249C199.223 143.642 193.552 148.221 181.555 150.623C169.557 153.026 150.585 142.55 139.906 128.783C129.226 115.017 127.945 107.846 131.526 87.5712L197.687 87.6003Z" fill="white"/>
    <path d="M178.003 151.46C166.202 151.46 149.509 141.996 139.491 129.125C128.855 115.49 127.399 108.094 131.039 87.5057C131.062 87.3887 131.124 87.2832 131.216 87.2074C131.307 87.1316 131.423 87.0903 131.542 87.0907H197.71C197.834 87.0901 197.955 87.1359 198.048 87.2194C198.141 87.3028 198.199 87.4179 198.212 87.5421C198.212 87.8187 201.044 115.01 200.396 129.271C199.668 144.632 193.276 148.796 181.672 151.111C180.464 151.35 179.234 151.467 178.003 151.46ZM131.942 88.1245C128.426 108.246 129.875 115.111 140.3 128.514C151.22 142.513 170.031 152.421 181.446 150.136C192.548 147.915 198.692 143.926 199.355 129.242C199.959 116.065 197.593 91.7499 197.222 88.1245H131.942Z" fill="#231F20"/>
    <path d="M131.52 87.6003C131.52 87.6003 133.791 96.9769 156.905 98.5203C180.019 100.064 197.673 93.9412 197.673 87.6003C197.673 81.2594 181.271 75.3845 164.6 74.9841C147.929 74.5837 132.495 81.7035 131.52 87.6003Z" fill="white"/>
    <path d="M164.206 99.2555C161.862 99.2555 159.409 99.1754 156.868 99.008C133.652 97.4719 131.119 88.088 131.017 87.7167C131.002 87.6496 131.002 87.58 131.017 87.5129C132.021 81.2594 147.761 74.0012 164.614 74.4089C180.463 74.8238 198.197 80.5386 198.197 87.5711C198.197 88.9179 197.505 90.2502 196.144 91.5314C191.921 95.5063 180.441 99.2555 164.206 99.2555ZM132.036 87.5638C132.189 88.0079 132.997 90.0099 135.945 92.143C139.054 94.3852 145.22 97.239 156.941 97.967C175.869 99.2191 190.625 95.3025 195.445 90.7889C195.939 90.4022 196.349 89.9174 196.647 89.3649C196.945 88.8124 197.126 88.2041 197.177 87.5784C197.177 81.7544 181.336 75.8794 164.585 75.4354C148.569 75.0204 133.143 81.849 132.036 87.5638Z" fill="#231F20"/>
    <path d="M143.917 128.223C147.776 129.737 156.854 130.123 155.565 117.856C154.277 105.589 149.45 98.8115 141.115 98.7969C132.779 98.7823 132.67 108.698 133.645 112.629C134.621 116.56 135.589 124.968 143.917 128.223Z" fill="#231F20"/>
    <path d="M148.017 129.482C146.552 129.48 145.1 129.216 143.729 128.703C136.034 125.689 134.418 118.446 133.449 114.143C133.34 113.641 133.238 113.182 133.129 112.774C132.401 109.913 132.299 104.446 134.913 101.126C135.641 100.204 136.58 99.4698 137.65 98.9835C138.72 98.4973 139.89 98.2736 141.064 98.3309C149.487 98.3309 154.663 105.094 156.025 117.841C156.534 122.675 155.537 126.082 153.062 127.975C151.59 129.017 149.818 129.546 148.017 129.482ZM144.1 127.749C145.956 128.477 149.8 129.154 152.472 127.123C154.656 125.456 155.515 122.362 155.034 117.907C153.724 105.582 149.028 99.321 141.086 99.3065C140.067 99.2531 139.051 99.4432 138.12 99.861C137.19 100.279 136.372 100.912 135.735 101.709C133.369 104.73 133.5 109.928 134.141 112.498C134.25 112.913 134.352 113.386 134.468 113.888C135.386 118.023 136.929 124.939 144.122 127.72L144.1 127.749Z" fill="#231F20"/>
    <path d="M150.796 120.848C150.538 121.519 150.121 122.118 149.581 122.594C149.041 123.069 148.394 123.407 147.695 123.578C142.126 124.961 138.617 118.344 137.634 114.995C136.651 111.646 137.227 103.041 142.141 103.689C142.786 103.697 143.422 103.854 143.997 104.148C145.777 105.012 147.302 106.324 148.423 107.955C150.92 111.224 152.34 117.259 150.796 120.848Z" fill="white"/>
    <path d="M146.233 124.277C141.574 124.277 138.298 119.05 137.14 115.14C136.456 112.782 136.412 107.22 138.691 104.541C139.105 104.037 139.642 103.647 140.25 103.409C140.858 103.17 141.516 103.092 142.163 103.179C142.872 103.192 143.568 103.364 144.202 103.682C146.058 104.588 147.651 105.954 148.832 107.649C151.314 110.889 152.923 117.193 151.263 121.052C150.971 121.793 150.506 122.454 149.907 122.979C149.308 123.505 148.593 123.88 147.82 124.073C147.301 124.206 146.768 124.275 146.233 124.277ZM141.617 104.162C141.204 104.162 140.796 104.256 140.424 104.436C140.052 104.617 139.726 104.879 139.47 105.203C137.599 107.387 137.424 112.483 138.123 114.857C138.931 117.594 142.2 124.415 147.587 123.09C148.208 122.935 148.782 122.632 149.261 122.207C149.74 121.783 150.11 121.249 150.339 120.651C151.86 117.113 150.339 111.289 148.031 108.275C146.95 106.728 145.498 105.476 143.809 104.635C143.306 104.383 142.755 104.242 142.192 104.22H142.09C141.934 104.19 141.776 104.171 141.617 104.162Z" fill="#231F20"/>
    <path d="M131.52 87.6003C131.52 87.6003 134.745 67.2163 153.935 64.1951C170.548 61.5524 191.907 69.2911 197.687 87.6003C197.687 87.6003 199.871 100.027 166.5 99.8088C133.128 99.5904 131.52 87.6003 131.52 87.6003Z" fill="#231F20"/>
    <path d="M167.351 100.318H166.499C133.077 100.1 131.082 88.1754 131.009 87.6658C131.002 87.6175 131.002 87.5684 131.009 87.5202C131.009 87.3091 134.526 66.7649 153.854 63.6927C171.093 60.9482 192.387 69.0799 198.167 87.4401C198.204 87.6148 198.604 90.0827 196.275 92.8419C193.37 96.2707 186.002 100.318 167.351 100.318ZM132.036 87.593C132.254 88.5321 135.406 99.0954 166.507 99.2992H167.366C185.566 99.2992 192.678 95.4699 195.459 92.2231C197.505 89.8352 197.192 87.7677 197.185 87.6803C192.817 73.7391 175.425 61.2903 154.014 64.6974C136.047 67.5511 132.291 86.1661 132.036 87.593Z" fill="#231F20"/>
    <path d="M116.822 219.179C131.839 219.179 144.012 207.005 144.012 191.988C144.012 176.971 131.839 164.797 116.822 164.797C101.805 164.797 89.6309 176.971 89.6309 191.988C89.6309 207.005 101.805 219.179 116.822 219.179Z" fill="#231F20"/>
    <path d="M116.821 219.689C111.341 219.689 105.984 218.063 101.428 215.018C96.8721 211.972 93.3217 207.644 91.2262 202.58C89.1307 197.516 88.5843 191.945 89.656 186.571C90.7278 181.196 93.3696 176.261 97.2473 172.388C101.125 168.516 106.064 165.88 111.44 164.816C116.816 163.751 122.386 164.305 127.447 166.407C132.508 168.509 136.832 172.065 139.871 176.625C142.911 181.185 144.529 186.544 144.522 192.025C144.505 199.362 141.579 206.394 136.387 211.58C131.195 216.765 124.159 219.681 116.821 219.689ZM116.821 165.307C111.544 165.307 106.386 166.872 101.998 169.804C97.6105 172.735 94.1907 176.902 92.1713 181.778C90.1518 186.653 89.6235 192.018 90.653 197.193C91.6825 202.369 94.2236 207.123 97.955 210.855C101.686 214.586 106.441 217.127 111.616 218.157C116.792 219.186 122.157 218.658 127.032 216.638C131.907 214.619 136.074 211.199 139.006 206.811C141.938 202.424 143.503 197.265 143.503 191.988C143.495 184.914 140.681 178.132 135.679 173.13C130.677 168.128 123.895 165.315 116.821 165.307Z" fill="#231F20"/>
    <path d="M181.591 121.765C183.058 121.765 184.248 119.963 184.248 117.739C184.248 115.516 183.058 113.714 181.591 113.714C180.123 113.714 178.934 115.516 178.934 117.739C178.934 119.963 180.123 121.765 181.591 121.765Z" fill="#231F20"/>
    <path d="M193.45 114.995C194.918 114.995 196.107 113.192 196.107 110.969C196.107 108.746 194.918 106.943 193.45 106.943C191.983 106.943 190.793 108.746 190.793 110.969C190.793 113.192 191.983 114.995 193.45 114.995Z" fill="#231F20"/>
    <path d="M151.423 123.687C151.348 123.688 151.274 123.672 151.206 123.641C151.138 123.609 151.078 123.563 151.03 123.505L136.863 106.39C136.819 106.338 136.785 106.278 136.765 106.213C136.744 106.148 136.736 106.08 136.742 106.012C136.748 105.944 136.768 105.878 136.8 105.818C136.832 105.758 136.876 105.705 136.929 105.662C137.034 105.574 137.17 105.532 137.306 105.544C137.443 105.556 137.569 105.622 137.657 105.727L151.86 122.85C151.924 122.924 151.964 123.014 151.977 123.111C151.99 123.207 151.975 123.305 151.933 123.393C151.892 123.481 151.826 123.555 151.743 123.606C151.66 123.657 151.564 123.682 151.467 123.68L151.423 123.687Z" fill="#231F20"/>
    <path d="M275.824 183.201C275.824 183.201 272.243 183.696 265.858 182.663C259.473 181.629 256.212 177.865 256.052 170.505C255.892 163.145 253.759 153.506 256.052 150.965C258.345 148.425 267.824 142.375 268.311 145.316C268.799 148.257 262.262 152.138 261.934 154.052C261.606 155.967 264.06 157.423 263.9 161.514C263.9 161.514 267.467 143.03 275.824 141.072C284.182 139.114 284.997 143.525 282.871 144.996C280.746 146.466 276.953 146.794 275.824 148.592C274.696 150.39 273.873 157.423 273.873 157.423C273.873 157.423 282.544 143.685 287.938 146.794C293.333 149.903 293.5 153.826 290.887 153.346C288.273 152.866 285.325 152.087 283.687 154.431C282.049 156.775 279.763 160.539 279.763 160.539C279.763 160.539 289.605 154.649 292.532 156.127C295.458 157.605 298.079 162.235 294.483 161.951C290.887 161.667 287.45 161.514 285.812 163.312C284.174 165.11 283.687 168.874 282.384 172.776C281.08 176.678 280.542 183.15 275.824 183.201Z" fill="#231F20"/>
    <path d="M273.348 183.835C270.811 183.815 268.279 183.591 265.777 183.165C259.05 182.073 255.702 177.931 255.541 170.512C255.483 168.19 255.236 165.613 254.995 163.13C254.435 157.437 253.962 152.523 255.672 150.623C257.682 148.388 265.195 143.343 267.816 144.071C268.076 144.138 268.311 144.281 268.49 144.482C268.669 144.683 268.784 144.933 268.82 145.2C269.155 147.216 266.876 149.378 264.874 151.278C263.724 152.363 262.545 153.462 262.436 154.096C262.419 154.875 262.648 155.639 263.091 156.28C263.482 157.011 263.806 157.776 264.059 158.566C265.442 153.222 269.09 142.12 275.707 140.57C282.215 139.033 283.824 141.392 284.159 142.149C284.396 142.724 284.426 143.364 284.244 143.959C284.063 144.553 283.68 145.067 283.162 145.411C282.112 146.037 280.987 146.526 279.813 146.867C278.27 147.413 276.814 147.922 276.253 148.818C275.612 149.844 275.03 152.946 274.673 155.297C277.323 151.57 283.657 143.693 288.192 146.306C292.051 148.534 293.492 151.257 292.924 152.8C292.76 153.204 292.448 153.531 292.053 153.715C291.657 153.898 291.206 153.925 290.791 153.79L290.238 153.688C287.879 153.237 285.44 152.756 284.108 154.671C283.191 155.989 282.055 157.765 281.247 159.039C284.312 157.357 290.362 154.394 292.764 155.595C294.883 156.658 297.132 159.534 296.673 161.237C296.542 161.725 296.084 162.511 294.446 162.395C290.806 162.111 287.624 162.016 286.19 163.589C285.156 164.732 284.589 166.829 283.926 169.253C283.613 170.432 283.278 171.641 282.863 172.893C282.608 173.621 282.39 174.502 282.135 175.404C281.182 179.044 280.002 183.587 275.845 183.653C275.017 183.762 274.184 183.823 273.348 183.835ZM267.16 145.032C264.867 145.032 258.424 149.087 256.422 151.308C255.017 152.865 255.52 158.034 256.007 163.028C256.255 165.533 256.502 168.124 256.561 170.49C256.714 177.435 259.691 181.141 265.945 182.138C272.198 183.136 275.714 182.677 275.751 182.677H275.816C279.216 182.677 280.184 178.855 281.167 175.193C281.407 174.276 281.633 173.41 281.895 172.616C282.303 171.393 282.623 170.192 282.943 169.034C283.635 166.479 284.239 164.273 285.44 162.948C287.18 161.034 290.58 161.121 294.519 161.419C295.203 161.478 295.603 161.339 295.691 161.012C295.967 160.007 294.235 157.539 292.305 156.549C290.121 155.443 282.696 159.352 280.024 160.917C279.928 160.976 279.814 161.002 279.702 160.988C279.59 160.975 279.485 160.924 279.405 160.844C279.325 160.764 279.273 160.658 279.259 160.545C279.244 160.432 279.268 160.317 279.325 160.218C279.325 160.218 281.648 156.418 283.271 154.081C284.982 151.628 287.879 152.181 290.434 152.683L290.98 152.785C291.344 152.858 291.818 152.851 291.971 152.443C292.313 151.511 291.184 149.204 287.683 147.187C283.606 144.828 276.646 153.943 274.309 157.648C274.245 157.745 274.152 157.817 274.043 157.855C273.933 157.893 273.815 157.895 273.705 157.86C273.595 157.821 273.502 157.745 273.441 157.646C273.38 157.546 273.355 157.429 273.37 157.314C273.407 157.022 274.215 150.15 275.394 148.272C276.122 147.071 277.76 146.503 279.478 145.899C280.566 145.574 281.608 145.111 282.579 144.523C282.906 144.319 283.151 144.007 283.269 143.64C283.388 143.274 283.373 142.877 283.227 142.521C282.703 141.327 280.512 140.446 275.947 141.516C267.998 143.416 264.43 161.427 264.401 161.616C264.375 161.742 264.303 161.854 264.2 161.93C264.097 162.007 263.969 162.043 263.841 162.031C263.712 162.016 263.594 161.953 263.51 161.855C263.426 161.756 263.383 161.629 263.389 161.5C263.446 159.837 263.027 158.193 262.181 156.76C261.686 155.792 261.264 154.962 261.453 153.972C261.642 152.982 262.756 151.948 264.19 150.58C265.923 148.942 268.078 146.896 267.83 145.411C267.827 145.334 267.797 145.261 267.747 145.203C267.697 145.145 267.629 145.105 267.553 145.09C267.43 145.054 267.303 145.035 267.175 145.032H267.16Z" fill="#231F20"/>
    <path d="M86.9961 244.069V193.648C86.9961 193.648 115.184 212.27 157.306 208.121V257.261C157.306 257.261 129.722 265.669 86.9961 244.069Z" fill="white"/>
    <path d="M142.63 259.343C130.254 259.343 110.845 256.693 86.7702 244.521C86.6859 244.479 86.6147 244.415 86.5645 244.335C86.5144 244.255 86.4874 244.163 86.4863 244.069V193.648C86.4875 193.556 86.513 193.465 86.5603 193.386C86.6076 193.307 86.675 193.242 86.7557 193.197C86.8346 193.148 86.9253 193.123 87.0178 193.123C87.1103 193.123 87.2009 193.148 87.2798 193.197C87.5638 193.379 115.81 211.666 157.262 207.582C157.332 207.577 157.402 207.586 157.469 207.608C157.535 207.631 157.596 207.667 157.648 207.713C157.702 207.76 157.745 207.819 157.774 207.884C157.802 207.949 157.817 208.02 157.816 208.092V257.232C157.816 257.34 157.782 257.446 157.717 257.534C157.653 257.622 157.563 257.687 157.459 257.719C157.335 257.807 152.035 259.343 142.63 259.343ZM87.5055 243.756C126.774 263.514 153.419 257.756 156.797 256.897V208.703C119.137 212.234 92.3613 197.492 87.5055 194.58V243.756Z" fill="#231F20"/>
    <path d="M218.182 214.877V142.855C218.182 142.855 281.62 140.468 307.849 114.718V189.12C307.849 189.12 281.62 210.101 218.182 214.877Z" fill="#18AB00"/>
    <path d="M218.181 215.386C218.046 215.386 217.917 215.332 217.821 215.237C217.726 215.141 217.672 215.012 217.672 214.877V142.855C217.672 142.724 217.722 142.598 217.813 142.503C217.904 142.408 218.028 142.352 218.16 142.346C218.793 142.346 281.699 139.674 307.493 114.354C307.564 114.284 307.655 114.237 307.754 114.218C307.852 114.199 307.954 114.21 308.047 114.248C308.139 114.287 308.218 114.353 308.274 114.436C308.329 114.52 308.359 114.618 308.359 114.718V189.12C308.357 189.196 308.34 189.271 308.307 189.34C308.275 189.409 308.228 189.471 308.17 189.52C307.9 189.731 281.088 210.632 218.218 215.379L218.181 215.386ZM218.691 143.314V214.294C278.045 209.73 304.843 190.7 307.34 188.814V115.905C282.02 139.558 224.61 143.045 218.691 143.343V143.314Z" fill="#231F20"/>
    <path d="M187.271 300.271V254.749C187.271 254.749 230.988 254.422 262.197 231.009V277.834C262.197 277.834 233.631 301.567 187.271 300.271Z" fill="#18AB00"/>
    <path d="M190.897 300.831C189.696 300.831 188.487 300.831 187.257 300.781C187.124 300.777 186.998 300.721 186.906 300.626C186.813 300.531 186.762 300.404 186.762 300.271V254.749C186.762 254.614 186.815 254.484 186.911 254.389C187.007 254.293 187.136 254.239 187.271 254.239C187.708 254.239 231.177 253.643 261.891 230.601C261.969 230.547 262.06 230.514 262.155 230.506C262.249 230.498 262.345 230.516 262.43 230.558C262.513 230.601 262.582 230.666 262.631 230.745C262.679 230.825 262.706 230.916 262.707 231.009V277.834C262.708 277.909 262.692 277.983 262.66 278.051C262.629 278.119 262.582 278.179 262.525 278.227C262.248 278.46 234.795 300.831 190.897 300.831ZM187.781 299.776C231.213 300.861 259.169 279.552 261.687 277.586V232.021C232.567 253.344 192.724 255.113 187.781 255.244V299.776Z" fill="#231F20"/>
</svg>
