<svg width="283" height="283" viewBox="0 0 283 283" fill="none" xmlns="http://www.w3.org/2000/svg">
    <path opacity="0.18" d="M173.361 243.521C186.373 243.68 199.425 243.827 212.341 242.265C218.788 241.49 225.285 240.256 231.064 237.307C237.432 234.058 242.599 228.885 247.32 223.513C257.508 211.922 266.247 198.762 270.843 184.035C275.439 169.308 275.642 152.848 269.337 138.761C265.154 129.354 258.187 121.175 255.617 111.225C251.35 94.7201 259.942 76.727 254.91 60.4318C252.985 54.2002 249.159 48.71 244.829 43.8424C227.476 24.3833 200.398 14.0481 174.51 16.9687C142.146 20.625 113.942 43.1745 81.4705 45.3366C70.4958 46.0611 59.2946 44.414 48.5406 46.695C29.6872 50.691 14.3599 67.7276 12.3789 86.898C11.0601 99.7009 15.124 112.345 17.9936 124.888C21.0274 138.161 22.6971 152.192 18.9332 165.272C16.0918 175.12 10.2903 183.893 7.21129 193.668C4.36431 202.639 3.94547 212.188 4.26809 221.583C4.36997 224.362 4.56241 227.226 5.76799 229.739C9.86017 238.212 25.7761 240.686 34.1189 241.433C48.8689 242.763 64.2584 241.869 79.0707 242.123C110.506 242.673 141.936 243.142 173.355 243.527L173.361 243.521Z" fill="#0AA406"/>
    <path d="M244.938 142.094H219.275V246.657H244.938V142.094Z" fill="#0AA406"/>
    <path d="M57.1956 142.094H31.5332V246.657H57.1956V142.094Z" fill="#0AA406"/>
    <path d="M244.869 142.094H219.207V171.294H244.869V142.094Z" fill="url(#paint0_linear_139_3721)"/>
    <path d="M250.648 133.542H22.0293V143.996H250.648V133.542Z" fill="#0AA406"/>
    <path opacity="0.18" d="M234.821 43.3952V67.6766C234.821 70.3538 232.648 72.5272 229.965 72.5272H212.153L204.597 83.8019V72.5272H192.292C189.615 72.5272 187.441 70.3594 187.436 67.6823V43.3952C187.436 40.718 189.609 38.5446 192.286 38.5446H229.965C232.642 38.5446 234.815 40.718 234.821 43.3952Z" fill="#0AA406"/>
    <path d="M232.948 42.1443V66.4257C232.948 69.1029 230.775 71.2764 228.098 71.2764H210.291L202.729 82.5511V71.2933H190.43C187.747 71.2933 185.574 69.1256 185.568 66.4427V42.15C185.568 39.4672 187.747 37.2937 190.43 37.2994H228.103C230.78 37.2994 232.954 39.4672 232.96 42.1443H232.948Z" fill="white"/>
    <path d="M199.402 54.6756L207.043 50.7419V51.8795L200.602 55.0888V55.1227L207.043 58.3489V59.4866L199.402 55.5529V54.6756Z" fill="#0AA406"/>
    <path d="M208.111 60.1601L212.707 48.2175H213.828L209.215 60.1601H208.111Z" fill="#0AA406"/>
    <path d="M222.501 55.6095L214.865 59.5319V58.3659L221.352 55.1397V55.0888L214.865 51.8626V50.7362L222.501 54.6586V55.6095Z" fill="#0AA406"/>
    <path d="M157.451 47.5157H56.7593C53.7209 47.5157 51.2578 49.9788 51.2578 53.0172V112.357C51.2578 115.395 53.7209 117.858 56.7593 117.858H157.451C160.489 117.858 162.952 115.395 162.952 112.357V53.0172C162.952 49.9788 160.489 47.5157 157.451 47.5157Z" fill="#0AA406"/>
    <path d="M154.168 50.4532H59.7589C56.958 50.4532 54.6875 52.7237 54.6875 55.5246V109.181C54.6875 111.982 56.958 114.253 59.7589 114.253H154.168C156.968 114.253 159.239 111.982 159.239 109.181V55.5246C159.239 52.7237 156.968 50.4532 154.168 50.4532Z" fill="url(#paint1_linear_139_3721)"/>
    <path d="M154.168 50.4532H59.7589C56.958 50.4532 54.6875 52.7237 54.6875 55.5246V109.181C54.6875 111.982 56.958 114.253 59.7589 114.253H154.168C156.968 114.253 159.239 111.982 159.239 109.181V55.5246C159.239 52.7237 156.968 50.4532 154.168 50.4532Z" fill="url(#paint2_linear_139_3721)"/>
    <path d="M145.186 77.3099C142.571 82.0134 138.914 86.049 136.48 90.8486C134.72 94.3578 133.673 98.167 132.083 101.761C130.492 105.355 128.223 108.836 124.764 110.732C123.361 111.508 121.68 112.102 120.955 113.528C128.313 114.683 135.756 115.209 143.205 115.096C143.68 115.124 144.155 115.045 144.603 114.87C145.123 114.553 145.548 114.111 145.848 113.585C150.908 106.34 159.273 101.127 161.73 92.6372C162.862 88.7318 162.573 84.5717 162.25 80.5135C161.866 75.2101 161.469 69.8897 160.683 64.6259C160.1 60.6469 159.675 56.3226 155.453 54.636C153.025 53.6568 149.612 53.5889 147.331 55.0208C144.167 56.9679 145.695 59.2036 146.901 61.9147C149.255 66.9691 147.778 72.6687 145.18 77.3043L145.186 77.3099Z" fill="url(#paint3_linear_139_3721)"/>
    <path d="M125.879 117.824H93.4414V131.25H125.879V117.824Z" fill="#0AA406"/>
    <path d="M125.879 117.824H93.4414V131.25H125.879V117.824Z" fill="url(#paint4_linear_139_3721)"/>
    <path d="M138.19 127.803H78.7773V133.508H138.19V127.803Z" fill="#0AA406"/>
    <path d="M139.124 128.216H79.7109V132.687H139.124V128.216Z" fill="url(#paint5_linear_139_3721)"/>
    <path d="M65.8896 54.6756H61.4805V109.244H65.8896V54.6756Z" fill="url(#paint6_linear_139_3721)"/>
    <path d="M88.4771 63.358H74.2988V64.3995H88.4771V63.358Z" fill="url(#paint7_linear_139_3721)"/>
    <path d="M82.953 65.3673H74.2988V66.3465H82.953V65.3673Z" fill="url(#paint8_linear_139_3721)"/>
    <path d="M113.681 65.3673H86.4453V66.3522H113.681V65.3673Z" fill="url(#paint9_linear_139_3721)"/>
    <path d="M131.561 65.3673H116.229V66.3522H131.561V65.3673Z" fill="url(#paint10_linear_139_3721)"/>
    <path d="M90.7018 67.3879H78.7988V68.4181H90.7018V67.3879Z" fill="url(#paint11_linear_139_3721)"/>
    <path d="M96.7974 69.3972H82.6191V70.4387H96.7974V69.3972Z" fill="url(#paint12_linear_139_3721)"/>
    <path d="M109.613 69.3972H97.7266V70.5519H109.613V69.3972Z" fill="url(#paint13_linear_139_3721)"/>
    <path d="M93.5556 71.4122H82.6035V72.3914H93.5556V71.4122Z" fill="url(#paint14_linear_139_3721)"/>
    <path d="M136.136 71.4122H125.184V72.3914H136.136V71.4122Z" fill="url(#paint15_linear_139_3721)"/>
    <path d="M117.196 71.4122H94.6016V72.4933H117.196V71.4122Z" fill="url(#paint16_linear_139_3721)"/>
    <path d="M124.328 71.4122H119.348V72.5159H124.328V71.4122Z" fill="url(#paint17_linear_139_3721)"/>
    <path d="M88.4771 74.1347H74.2988V75.1761H88.4771V74.1347Z" fill="url(#paint18_linear_139_3721)"/>
    <path d="M82.953 76.144H74.2988V77.1232H82.953V76.144Z" fill="url(#paint19_linear_139_3721)"/>
    <path d="M113.681 76.144H86.4453V77.1288H113.681V76.144Z" fill="url(#paint20_linear_139_3721)"/>
    <path d="M131.561 76.144H116.229V77.1288H131.561V76.144Z" fill="url(#paint21_linear_139_3721)"/>
    <path d="M90.7018 78.1589H78.7988V79.1891H90.7018V78.1589Z" fill="url(#paint22_linear_139_3721)"/>
    <path d="M96.7974 80.1796H82.6191V81.221H96.7974V80.1796Z" fill="url(#paint23_linear_139_3721)"/>
    <path d="M109.613 80.1796H97.7266V81.3342H109.613V80.1796Z" fill="url(#paint24_linear_139_3721)"/>
    <path d="M93.5556 82.1888H82.6035V83.168H93.5556V82.1888Z" fill="url(#paint25_linear_139_3721)"/>
    <path d="M136.136 82.1888H125.184V83.168H136.136V82.1888Z" fill="url(#paint26_linear_139_3721)"/>
    <path d="M117.196 82.1888H94.6016V83.2699H117.196V82.1888Z" fill="url(#paint27_linear_139_3721)"/>
    <path d="M124.328 82.1888H119.348V83.2925H124.328V82.1888Z" fill="url(#paint28_linear_139_3721)"/>
    <path d="M88.4771 84.9113H74.2988V85.9528H88.4771V84.9113Z" fill="url(#paint29_linear_139_3721)"/>
    <path d="M82.953 86.9263H74.2988V87.9054H82.953V86.9263Z" fill="url(#paint30_linear_139_3721)"/>
    <path d="M113.681 86.9263H86.4453V87.9111H113.681V86.9263Z" fill="url(#paint31_linear_139_3721)"/>
    <path d="M131.561 86.9263H116.229V87.9111H131.561V86.9263Z" fill="url(#paint32_linear_139_3721)"/>
    <path d="M90.7018 88.9355H78.7988V89.9657H90.7018V88.9355Z" fill="url(#paint33_linear_139_3721)"/>
    <path d="M96.7974 90.9506H82.6191V91.992H96.7974V90.9506Z" fill="url(#paint34_linear_139_3721)"/>
    <path d="M109.613 90.9506H97.7266V92.1052H109.613V90.9506Z" fill="url(#paint35_linear_139_3721)"/>
    <path d="M93.5556 92.9655H82.6035V93.9447H93.5556V92.9655Z" fill="url(#paint36_linear_139_3721)"/>
    <path d="M136.136 92.9655H125.184V93.9447H136.136V92.9655Z" fill="url(#paint37_linear_139_3721)"/>
    <path d="M117.196 92.9655H94.6016V94.0466H117.196V92.9655Z" fill="url(#paint38_linear_139_3721)"/>
    <path d="M124.328 92.9655H119.348V94.0692H124.328V92.9655Z" fill="url(#paint39_linear_139_3721)"/>
    <path d="M137.334 238.784C137.487 239.197 137.504 239.644 137.385 240.063C137.289 240.295 137.153 240.505 136.978 240.686C135.364 242.508 132.953 243.386 130.655 244.184C129.852 244.484 129.031 244.721 128.193 244.897C127.299 245.033 126.393 245.089 125.488 245.061C122.516 245.038 119.55 244.852 116.602 244.495C117.903 241.178 120.79 238.75 124.282 238.037C125.907 237.72 127.582 237.799 129.229 237.635C129.461 237.646 129.682 237.545 129.823 237.363C129.886 237.194 129.886 237.007 129.823 236.843L129.167 234.386C129.088 234.177 129.071 233.95 129.133 233.735C129.24 233.43 129.591 233.294 129.903 233.215C131.018 232.892 131.753 229.626 132.942 229.558C134.131 229.49 135.789 233.39 135.998 234.63C136.247 236.158 137.17 238.15 137.34 238.795L137.334 238.784Z" fill="#0AA406"/>
    <path d="M137.334 238.784C137.487 239.197 137.504 239.644 137.385 240.063C137.289 240.295 137.153 240.505 136.978 240.686C135.364 242.508 132.953 243.386 130.655 244.184C129.852 244.484 129.031 244.721 128.193 244.897C127.299 245.033 126.393 245.089 125.488 245.061C122.516 245.038 119.55 244.852 116.602 244.495C117.903 241.178 120.79 238.75 124.282 238.037C125.907 237.72 127.582 237.799 129.229 237.635C129.461 237.646 129.682 237.545 129.823 237.363C129.886 237.194 129.886 237.007 129.823 236.843L129.167 234.386C129.088 234.177 129.071 233.95 129.133 233.735C129.24 233.43 129.591 233.294 129.903 233.215C131.018 232.892 131.753 229.626 132.942 229.558C134.131 229.49 135.789 233.39 135.998 234.63C136.247 236.158 137.17 238.15 137.34 238.795L137.334 238.784Z" fill="url(#paint40_linear_139_3721)"/>
    <path d="M137.521 158.254C137.521 158.254 102.825 173.462 101.399 176.077C99.9726 178.692 100.448 185.342 102.593 188.201C104.738 191.053 128.256 234.069 128.256 234.069L136.095 231.924L120.649 185.348C120.649 185.348 163.427 182.976 166.517 179.886C169.608 176.796 173.881 167.53 173.881 167.53L151.541 147.33L137.521 158.259V158.254Z" fill="#0AA406"/>
    <path d="M137.521 158.254C137.521 158.254 102.825 173.462 101.399 176.077C99.9726 178.692 100.448 185.342 102.593 188.201C104.738 191.053 128.256 234.069 128.256 234.069L136.095 231.924L120.649 185.348C120.649 185.348 163.427 182.976 166.517 179.886C169.608 176.796 173.881 167.53 173.881 167.53L151.541 147.33L137.521 158.259V158.254Z" fill="url(#paint41_linear_139_3721)"/>
    <path d="M170.348 241.722C173.445 244.687 178.142 245.299 182.37 244.812C183.089 244.727 183.904 244.557 184.255 243.929C184.606 243.301 184.346 242.514 183.961 241.903C183.061 240.482 181.601 239.509 180.135 238.682C177.967 237.471 175.675 236.492 173.297 235.762C172.794 235.643 172.324 235.433 171.899 235.139C170.977 234.409 170.886 233.05 170.156 232.105C169.85 231.715 166.364 230.775 166.024 231.058C164.977 231.862 166.228 234.403 166.681 235.597C167.552 237.811 168.6 240.046 170.348 241.722Z" fill="#0AA406"/>
    <path d="M170.348 241.722C173.445 244.687 178.142 245.299 182.37 244.812C183.089 244.727 183.904 244.557 184.255 243.929C184.606 243.301 184.346 242.514 183.961 241.903C183.061 240.482 181.601 239.509 180.135 238.682C177.967 237.471 175.675 236.492 173.297 235.762C172.794 235.643 172.324 235.433 171.899 235.139C170.977 234.409 170.886 233.05 170.156 232.105C169.85 231.715 166.364 230.775 166.024 231.058C164.977 231.862 166.228 234.403 166.681 235.597C167.552 237.811 168.6 240.046 170.348 241.722Z" fill="url(#paint42_linear_139_3721)"/>
    <path d="M159.941 76.1949C160.093 76.1666 160.246 76.1949 160.382 76.2741C160.467 76.3647 160.524 76.4836 160.541 76.6081C160.648 77.3948 160.699 78.1872 160.699 78.9796C160.705 79.7777 160.982 80.5531 161.486 81.17C162.272 82.0021 163.54 82.0813 164.678 82.1096C164.916 82.1266 165.159 82.1096 165.397 82.053C165.708 81.9115 166.008 81.736 166.28 81.5323C167.089 81.0682 168.114 81.1474 168.946 80.7229C169.268 80.5474 169.557 80.3267 169.8 80.0607C171.447 78.3344 171.6 75.6346 171.046 73.3083C170.491 70.9821 169.37 68.8313 168.759 66.5107C168.238 64.4674 168.091 62.2373 166.914 60.4828C166.693 60.0639 166.28 59.7753 165.81 59.7187C164.055 59.4074 162.267 59.2998 160.49 59.4017C159.058 59.4017 157.563 59.4809 156.307 60.1658C155.503 60.6016 153.256 57.1716 152.69 57.8848C152.294 58.4055 153.239 69.1822 153.369 70.0142C154.484 77.0439 157.971 76.2968 159.941 76.2006V76.1949Z" fill="#FFB4A3"/>
    <path d="M143.577 96.469C143.577 96.469 147.381 82.919 155.345 80.4286C163.308 77.9325 175.307 77.2194 178.041 77.9325C180.775 78.6457 188.614 83.0435 189.446 95.6427C190.278 108.242 190.986 114.536 190.986 114.536L188.846 167.53C188.846 167.53 159.618 172.279 151.773 168.719L148.921 155.65L146.074 165.866L137.516 158.259L142.264 142.338C142.264 142.338 141.551 104.308 143.572 96.469H143.577Z" fill="#0AA406"/>
    <path d="M143.577 96.469C143.577 96.469 147.381 82.919 155.345 80.4286C163.308 77.9325 175.307 77.2194 178.041 77.9325C180.775 78.6457 188.614 83.0435 189.446 95.6427C190.278 108.242 190.986 114.536 190.986 114.536L188.846 167.53C188.846 167.53 159.618 172.279 151.773 168.719L148.921 155.65L146.074 165.866L137.516 158.259L142.264 142.338C142.264 142.338 141.551 104.308 143.572 96.469H143.577Z" fill="url(#paint43_linear_139_3721)"/>
    <path opacity="0.48" d="M174.181 114.677C172.251 117.864 171.368 121.554 170.525 125.171L164.967 148.649C163.812 153.539 162.629 158.508 160.23 162.923C157.83 167.338 154.026 171.238 149.193 172.619C145.604 173.666 141.778 173.23 138.076 173.637C130.543 174.526 123.807 178.748 119.727 185.139C135.02 185.342 150.313 184.488 165.488 182.575C167.729 182.292 170.05 181.958 171.963 180.752C174.204 179.331 175.585 176.892 176.666 174.481C179.026 169.319 180.538 163.812 181.896 158.276C184.092 149.198 185.824 140.017 187.081 130.769C188.23 122.335 190.578 111.791 189.135 103.408C183.611 104.653 177.125 109.844 174.187 114.672L174.181 114.677Z" fill="url(#paint44_linear_139_3721)"/>
    <path d="M127.984 131.997L141.682 131.878L142.038 125.578L127.984 131.997Z" stroke="#68E1FD" stroke-width="1.18" stroke-miterlimit="10"/>
    <path d="M136.576 185.11L165.091 233.113L171.266 231.686L157.009 183.446L136.576 185.11Z" fill="#0AA406"/>
    <path d="M136.576 185.11L165.091 233.113L171.266 231.686L157.009 183.446L136.576 185.11Z" fill="url(#paint45_linear_139_3721)"/>
    <path d="M225.692 133.304C224.497 138.064 214.27 177.735 214.27 177.735C214.27 177.735 211.655 188.67 203.584 188.67C199.248 188.67 178.034 188.297 159.294 187.94C143.09 187.635 128.73 187.357 128.73 187.357C128.73 187.357 126.834 180.35 132.76 179.863C138.686 179.377 155.57 179.863 155.57 179.863C155.57 179.863 163.901 179.411 167.224 171.085C169.958 164.287 176.184 136.695 178.363 126.976C178.94 124.322 180.117 121.837 181.81 119.709C185.557 114.921 192.999 107.325 202.876 106.691C213.132 106.006 219.72 109.855 223.111 113.274C224.197 114.304 225.075 115.532 225.692 116.896C226.88 119.998 226.88 128.55 225.692 133.316V133.304Z" fill="#0AA406"/>
    <path d="M223.105 113.274C223.105 113.579 223.105 113.857 223.076 114.162C223.076 114.162 203.097 107.048 188.132 129.501L174.225 178.324C174.225 178.324 171.463 187.589 159.288 187.946C143.084 187.64 128.724 187.363 128.724 187.363C128.724 187.363 126.828 180.356 132.754 179.869C138.68 179.382 155.564 179.869 155.564 179.869C155.564 179.869 163.896 179.416 167.218 171.09C169.952 164.293 176.178 136.7 178.357 126.982C178.934 124.328 180.111 121.843 181.804 119.715C185.551 114.926 192.994 107.331 202.87 106.697C213.126 106.012 219.714 109.861 223.105 113.279V113.274Z" fill="url(#paint46_linear_139_3721)"/>
    <path d="M171.022 188.099H167.225V246.901H171.022V188.099Z" fill="#0AA406"/>
    <path d="M171.022 188.099H167.225V246.901H171.022V188.099Z" fill="url(#paint47_linear_139_3721)"/>
    <path d="M156.448 242.254H183.826C185.128 242.254 186.18 243.306 186.18 244.608C186.18 245.91 185.128 246.963 183.826 246.963H156.448C155.147 246.963 154.094 245.91 154.094 244.608C154.094 243.306 155.147 242.254 156.448 242.254Z" fill="#0AA406"/>
    <path d="M156.448 242.254H183.826C185.128 242.254 186.18 243.306 186.18 244.608C186.18 245.91 185.128 246.963 183.826 246.963H156.448C155.147 246.963 154.094 245.91 154.094 244.608C154.094 243.306 155.147 242.254 156.448 242.254Z" fill="url(#paint48_linear_139_3721)"/>
    <path d="M158.945 48.8514C157.96 49.5816 157.111 50.4872 156.075 51.1381C154.649 51.9814 153.024 52.4342 151.372 52.4342C150.245 52.4682 148.876 52.4852 148.332 53.4813C147.891 54.2907 148.332 55.3152 148.898 56.0396C149.43 56.6962 150.081 57.2396 150.823 57.6471C151.202 57.8225 151.553 58.0489 151.87 58.315C152.515 58.9659 152.521 60.0016 152.917 60.828C153.483 61.9883 154.768 62.6052 155.594 63.5957C157.218 65.5428 156.822 68.5539 158.209 70.6707C159.047 71.8027 160.201 72.6574 161.526 73.1272C163.303 73.9026 165.267 74.1686 167.186 73.9026C169.104 73.6309 170.842 72.6065 172.014 71.0669C173.004 69.6916 173.4 67.9879 173.683 66.3182C174.244 63.0297 174.436 59.6168 173.61 56.3849C171.98 50.0344 165.256 44.1593 158.95 48.8458L158.945 48.8514Z" fill="#231F20"/>
    <path d="M158.945 48.8514C157.96 49.5816 157.111 50.4872 156.075 51.1381C154.649 51.9814 153.024 52.4342 151.372 52.4342C150.245 52.4682 148.876 52.4852 148.332 53.4813C147.891 54.2907 148.332 55.3152 148.898 56.0396C149.43 56.6962 150.081 57.2396 150.823 57.6471C151.202 57.8225 151.553 58.0489 151.87 58.315C152.515 58.9659 152.521 60.0016 152.917 60.828C153.483 61.9883 154.768 62.6052 155.594 63.5957C157.218 65.5428 156.822 68.5539 158.209 70.6707C159.047 71.8027 160.201 72.6574 161.526 73.1272C163.303 73.9026 165.267 74.1686 167.186 73.9026C169.104 73.6309 170.842 72.6065 172.014 71.0669C173.004 69.6916 173.4 67.9879 173.683 66.3182C174.244 63.0297 174.436 59.6168 173.61 56.3849C171.98 50.0344 165.256 44.1593 158.95 48.8458L158.945 48.8514Z" fill="url(#paint49_linear_139_3721)"/>
    <path d="M160.607 85.5679C162 87.5149 162.47 89.977 161.892 92.2976C160.523 98.2406 156.73 112.345 150.352 118.435C142.15 126.275 129.681 134.476 103.832 133.768L104.194 126.637C104.194 126.637 132.177 124.141 134.668 114.87C137.158 105.599 146.967 85.6414 150.533 83.6774C153.334 82.1492 157.794 81.8209 160.613 85.5622L160.607 85.5679Z" fill="#0AA406"/>
    <path d="M160.607 85.5679C162 87.5149 162.47 89.977 161.892 92.2976C160.523 98.2406 156.73 112.345 150.352 118.435C142.15 126.275 129.681 134.476 103.832 133.768L104.194 126.637C104.194 126.637 132.177 124.141 134.668 114.87C137.158 105.599 146.967 85.6414 150.533 83.6774C153.334 82.1492 157.794 81.8209 160.613 85.5622L160.607 85.5679Z" fill="url(#paint50_linear_139_3721)"/>
    <path d="M99.2138 126.269C94.9065 125.443 90.4861 127.005 87.6504 130.355L93.8424 130.961C94.2443 130.961 94.6405 131.074 94.9858 131.272C95.2518 131.521 95.5065 131.782 95.7442 132.059C96.2762 132.433 96.9215 132.614 97.5724 132.58C99.5138 132.67 101.455 132.676 103.397 132.58C103.634 132.597 103.878 132.529 104.076 132.399C104.229 132.246 104.33 132.042 104.364 131.827C104.619 130.837 105.185 128.052 104.223 127.356C103.776 127.039 102.395 127.078 101.812 126.925C100.946 126.727 100.091 126.439 99.2081 126.263L99.2138 126.269Z" fill="#FFB4A3"/>
    <defs>
        <linearGradient id="paint0_linear_139_3721" x1="194.275" y1="150.092" x2="680.35" y2="235.065" gradientUnits="userSpaceOnUse">
            <stop stop-opacity="0"/>
            <stop offset="0.99"/>
        </linearGradient>
        <linearGradient id="paint1_linear_139_3721" x1="107.11" y1="79.5343" x2="91.4832" y2="384.427" gradientUnits="userSpaceOnUse">
            <stop stop-opacity="0"/>
            <stop offset="0.99"/>
        </linearGradient>
        <linearGradient id="paint2_linear_139_3721" x1="105.797" y1="138.868" x2="108.141" y2="25.4756" gradientUnits="userSpaceOnUse">
            <stop stop-color="white" stop-opacity="0"/>
            <stop offset="0.99" stop-color="white"/>
        </linearGradient>
        <linearGradient id="paint3_linear_139_3721" x1="126.117" y1="83.3888" x2="381.96" y2="99.0104" gradientUnits="userSpaceOnUse">
            <stop stop-opacity="0"/>
            <stop offset="0.99"/>
        </linearGradient>
        <linearGradient id="paint4_linear_139_3721" x1="109.674" y1="127.984" x2="109.567" y2="97.7822" gradientUnits="userSpaceOnUse">
            <stop stop-opacity="0"/>
            <stop offset="0.99"/>
        </linearGradient>
        <linearGradient id="paint5_linear_139_3721" x1="109.16" y1="123.394" x2="110.037" y2="147.449" gradientUnits="userSpaceOnUse">
            <stop stop-opacity="0"/>
            <stop offset="0.99"/>
        </linearGradient>
        <linearGradient id="paint6_linear_139_3721" x1="50.1378" y1="84.2604" x2="88.7164" y2="77.7005" gradientUnits="userSpaceOnUse">
            <stop stop-color="white" stop-opacity="0"/>
            <stop offset="0.99" stop-color="white"/>
        </linearGradient>
        <linearGradient id="paint7_linear_139_3721" x1="81.9285" y1="35.1487" x2="81.1474" y2="76.8571" gradientUnits="userSpaceOnUse">
            <stop stop-color="white" stop-opacity="0"/>
            <stop offset="0.99" stop-color="white"/>
        </linearGradient>
        <linearGradient id="paint8_linear_139_3721" x1="79.2004" y1="35.1033" x2="78.425" y2="76.8006" gradientUnits="userSpaceOnUse">
            <stop stop-color="white" stop-opacity="0"/>
            <stop offset="0.99" stop-color="white"/>
        </linearGradient>
        <linearGradient id="paint9_linear_139_3721" x1="100.635" y1="35.4994" x2="99.8539" y2="77.2081" gradientUnits="userSpaceOnUse">
            <stop stop-color="white" stop-opacity="0"/>
            <stop offset="0.99" stop-color="white"/>
        </linearGradient>
        <linearGradient id="paint10_linear_139_3721" x1="124.458" y1="35.9466" x2="123.677" y2="77.6496" gradientUnits="userSpaceOnUse">
            <stop stop-color="white" stop-opacity="0"/>
            <stop offset="0.99" stop-color="white"/>
        </linearGradient>
        <linearGradient id="paint11_linear_139_3721" x1="85.3644" y1="35.2165" x2="84.5833" y2="76.9194" gradientUnits="userSpaceOnUse">
            <stop stop-color="white" stop-opacity="0"/>
            <stop offset="0.99" stop-color="white"/>
        </linearGradient>
        <linearGradient id="paint12_linear_139_3721" x1="90.362" y1="35.3071" x2="89.5809" y2="77.0099" gradientUnits="userSpaceOnUse">
            <stop stop-color="white" stop-opacity="0"/>
            <stop offset="0.99" stop-color="white"/>
        </linearGradient>
        <linearGradient id="paint13_linear_139_3721" x1="104.315" y1="35.5674" x2="103.534" y2="77.276" gradientUnits="userSpaceOnUse">
            <stop stop-color="white" stop-opacity="0"/>
            <stop offset="0.99" stop-color="white"/>
        </linearGradient>
        <linearGradient id="paint14_linear_139_3721" x1="88.7616" y1="35.2787" x2="87.9805" y2="76.9817" gradientUnits="userSpaceOnUse">
            <stop stop-color="white" stop-opacity="0"/>
            <stop offset="0.99" stop-color="white"/>
        </linearGradient>
        <linearGradient id="paint15_linear_139_3721" x1="131.325" y1="36.0711" x2="130.549" y2="77.7797" gradientUnits="userSpaceOnUse">
            <stop stop-color="white" stop-opacity="0"/>
            <stop offset="0.99" stop-color="white"/>
        </linearGradient>
        <linearGradient id="paint16_linear_139_3721" x1="106.578" y1="35.6126" x2="105.797" y2="77.3156" gradientUnits="userSpaceOnUse">
            <stop stop-color="white" stop-opacity="0"/>
            <stop offset="0.99" stop-color="white"/>
        </linearGradient>
        <linearGradient id="paint17_linear_139_3721" x1="122.517" y1="35.9127" x2="121.731" y2="77.6156" gradientUnits="userSpaceOnUse">
            <stop stop-color="white" stop-opacity="0"/>
            <stop offset="0.99" stop-color="white"/>
        </linearGradient>
        <linearGradient id="paint18_linear_139_3721" x1="81.9285" y1="45.9251" x2="81.1474" y2="87.6339" gradientUnits="userSpaceOnUse">
            <stop stop-color="white" stop-opacity="0"/>
            <stop offset="0.99" stop-color="white"/>
        </linearGradient>
        <linearGradient id="paint19_linear_139_3721" x1="79.2004" y1="45.8744" x2="78.425" y2="87.5828" gradientUnits="userSpaceOnUse">
            <stop stop-color="white" stop-opacity="0"/>
            <stop offset="0.99" stop-color="white"/>
        </linearGradient>
        <linearGradient id="paint20_linear_139_3721" x1="100.635" y1="46.2761" x2="99.8539" y2="87.9847" gradientUnits="userSpaceOnUse">
            <stop stop-color="white" stop-opacity="0"/>
            <stop offset="0.99" stop-color="white"/>
        </linearGradient>
        <linearGradient id="paint21_linear_139_3721" x1="124.458" y1="46.7232" x2="123.677" y2="88.4262" gradientUnits="userSpaceOnUse">
            <stop stop-color="white" stop-opacity="0"/>
            <stop offset="0.99" stop-color="white"/>
        </linearGradient>
        <linearGradient id="paint22_linear_139_3721" x1="85.3644" y1="45.9874" x2="84.5833" y2="87.6961" gradientUnits="userSpaceOnUse">
            <stop stop-color="white" stop-opacity="0"/>
            <stop offset="0.99" stop-color="white"/>
        </linearGradient>
        <linearGradient id="paint23_linear_139_3721" x1="90.362" y1="46.0838" x2="89.5809" y2="87.7922" gradientUnits="userSpaceOnUse">
            <stop stop-color="white" stop-opacity="0"/>
            <stop offset="0.99" stop-color="white"/>
        </linearGradient>
        <linearGradient id="paint24_linear_139_3721" x1="104.315" y1="46.3442" x2="103.534" y2="88.0526" gradientUnits="userSpaceOnUse">
            <stop stop-color="white" stop-opacity="0"/>
            <stop offset="0.99" stop-color="white"/>
        </linearGradient>
        <linearGradient id="paint25_linear_139_3721" x1="88.7616" y1="46.0555" x2="87.9805" y2="87.7583" gradientUnits="userSpaceOnUse">
            <stop stop-color="white" stop-opacity="0"/>
            <stop offset="0.99" stop-color="white"/>
        </linearGradient>
        <linearGradient id="paint26_linear_139_3721" x1="131.325" y1="46.8536" x2="130.549" y2="88.5563" gradientUnits="userSpaceOnUse">
            <stop stop-color="white" stop-opacity="0"/>
            <stop offset="0.99" stop-color="white"/>
        </linearGradient>
        <linearGradient id="paint27_linear_139_3721" x1="106.578" y1="46.3896" x2="105.797" y2="88.0922" gradientUnits="userSpaceOnUse">
            <stop stop-color="white" stop-opacity="0"/>
            <stop offset="0.99" stop-color="white"/>
        </linearGradient>
        <linearGradient id="paint28_linear_139_3721" x1="122.517" y1="46.6894" x2="121.731" y2="88.3922" gradientUnits="userSpaceOnUse">
            <stop stop-color="white" stop-opacity="0"/>
            <stop offset="0.99" stop-color="white"/>
        </linearGradient>
        <linearGradient id="paint29_linear_139_3721" x1="81.9285" y1="56.7076" x2="81.1474" y2="98.4047" gradientUnits="userSpaceOnUse">
            <stop stop-color="white" stop-opacity="0"/>
            <stop offset="0.99" stop-color="white"/>
        </linearGradient>
        <linearGradient id="paint30_linear_139_3721" x1="79.2004" y1="56.651" x2="78.425" y2="98.3594" gradientUnits="userSpaceOnUse">
            <stop stop-color="white" stop-opacity="0"/>
            <stop offset="0.99" stop-color="white"/>
        </linearGradient>
        <linearGradient id="paint31_linear_139_3721" x1="100.635" y1="57.0527" x2="99.8539" y2="98.7557" gradientUnits="userSpaceOnUse">
            <stop stop-color="white" stop-opacity="0"/>
            <stop offset="0.99" stop-color="white"/>
        </linearGradient>
        <linearGradient id="paint32_linear_139_3721" x1="124.458" y1="57.4998" x2="123.677" y2="99.2085" gradientUnits="userSpaceOnUse">
            <stop stop-color="white" stop-opacity="0"/>
            <stop offset="0.99" stop-color="white"/>
        </linearGradient>
        <linearGradient id="paint33_linear_139_3721" x1="85.3644" y1="56.7699" x2="84.5834" y2="98.4726" gradientUnits="userSpaceOnUse">
            <stop stop-color="white" stop-opacity="0"/>
            <stop offset="0.99" stop-color="white"/>
        </linearGradient>
        <linearGradient id="paint34_linear_139_3721" x1="90.362" y1="56.8605" x2="89.5753" y2="98.5689" gradientUnits="userSpaceOnUse">
            <stop stop-color="white" stop-opacity="0"/>
            <stop offset="0.99" stop-color="white"/>
        </linearGradient>
        <linearGradient id="paint35_linear_139_3721" x1="104.315" y1="57.1209" x2="103.534" y2="98.8293" gradientUnits="userSpaceOnUse">
            <stop stop-color="white" stop-opacity="0"/>
            <stop offset="0.99" stop-color="white"/>
        </linearGradient>
        <linearGradient id="paint36_linear_139_3721" x1="88.7616" y1="56.8322" x2="87.9805" y2="98.5349" gradientUnits="userSpaceOnUse">
            <stop stop-color="white" stop-opacity="0"/>
            <stop offset="0.99" stop-color="white"/>
        </linearGradient>
        <linearGradient id="paint37_linear_139_3721" x1="131.325" y1="57.6302" x2="130.549" y2="99.333" gradientUnits="userSpaceOnUse">
            <stop stop-color="white" stop-opacity="0"/>
            <stop offset="0.99" stop-color="white"/>
        </linearGradient>
        <linearGradient id="paint38_linear_139_3721" x1="106.578" y1="57.1659" x2="105.797" y2="98.8746" gradientUnits="userSpaceOnUse">
            <stop stop-color="white" stop-opacity="0"/>
            <stop offset="0.99" stop-color="white"/>
        </linearGradient>
        <linearGradient id="paint39_linear_139_3721" x1="122.517" y1="57.466" x2="121.731" y2="99.1689" gradientUnits="userSpaceOnUse">
            <stop stop-color="white" stop-opacity="0"/>
            <stop offset="0.99" stop-color="white"/>
        </linearGradient>
        <linearGradient id="paint40_linear_139_3721" x1="112.323" y1="229.762" x2="151.999" y2="252.719" gradientUnits="userSpaceOnUse">
            <stop stop-opacity="0"/>
            <stop offset="0.99"/>
        </linearGradient>
        <linearGradient id="paint41_linear_139_3721" x1="88.5168" y1="192.406" x2="331.863" y2="184.29" gradientUnits="userSpaceOnUse">
            <stop stop-opacity="0"/>
            <stop offset="0.99"/>
        </linearGradient>
        <linearGradient id="paint42_linear_139_3721" x1="180.14" y1="231.335" x2="167.807" y2="246.487" gradientUnits="userSpaceOnUse">
            <stop stop-opacity="0"/>
            <stop offset="0.99"/>
        </linearGradient>
        <linearGradient id="paint43_linear_139_3721" x1="143.221" y1="121.09" x2="397.66" y2="150.143" gradientUnits="userSpaceOnUse">
            <stop stop-opacity="0"/>
            <stop offset="0.99"/>
        </linearGradient>
        <linearGradient id="paint44_linear_139_3721" x1="134.318" y1="132.75" x2="364.856" y2="264.888" gradientUnits="userSpaceOnUse">
            <stop stop-opacity="0"/>
            <stop offset="0.99"/>
        </linearGradient>
        <linearGradient id="paint45_linear_139_3721" x1="151.462" y1="225.059" x2="175.834" y2="59.8035" gradientUnits="userSpaceOnUse">
            <stop stop-opacity="0"/>
            <stop offset="0.99"/>
        </linearGradient>
        <linearGradient id="paint46_linear_139_3721" x1="152.225" y1="192.406" x2="228.759" y2="50.2721" gradientUnits="userSpaceOnUse">
            <stop stop-color="white" stop-opacity="0"/>
            <stop offset="0.99" stop-color="white"/>
        </linearGradient>
        <linearGradient id="paint47_linear_139_3721" x1="168.425" y1="235.796" x2="171.555" y2="154.105" gradientUnits="userSpaceOnUse">
            <stop stop-opacity="0"/>
            <stop offset="0.99"/>
        </linearGradient>
        <linearGradient id="paint48_linear_139_3721" x1="164.978" y1="240.55" x2="194.812" y2="263.977" gradientUnits="userSpaceOnUse">
            <stop stop-opacity="0"/>
            <stop offset="0.99"/>
        </linearGradient>
        <linearGradient id="paint49_linear_139_3721" x1="158.186" y1="56.8037" x2="178.8" y2="69.6067" gradientUnits="userSpaceOnUse">
            <stop stop-opacity="0"/>
            <stop offset="0.99"/>
        </linearGradient>
        <linearGradient id="paint50_linear_139_3721" x1="135.715" y1="113.562" x2="120.405" y2="96.3841" gradientUnits="userSpaceOnUse">
            <stop stop-color="white" stop-opacity="0"/>
            <stop offset="0.99" stop-color="white"/>
        </linearGradient>
    </defs>
</svg>
