<svg width="52" height="46" viewBox="0 0 52 46" fill="none" xmlns="http://www.w3.org/2000/svg">
    <path d="M25.9708 21.9685C26.5919 21.9685 27.1742 22.0454 27.7177 22.1991C28.2612 22.3505 28.7659 22.6092 29.2317 22.9754L50.6605 39.8178C51.5146 40.4891 51.9602 41.3288 51.9975 42.3369C52.0379 43.3426 51.5922 44.2115 50.6605 44.9438C49.8065 45.6151 48.7195 45.9507 47.3996 45.9507C46.0797 45.9507 44.9927 45.6151 44.1387 44.9438L25.9708 30.7559L7.80289 44.9438C6.94884 45.6151 5.88206 45.9666 4.60254 45.9983C3.31992 46.0276 2.21277 45.6761 1.28108 44.9438C0.427032 44.2726 2.25705e-07 43.4182 3.16397e-07 42.3808C4.0709e-07 41.3434 0.427032 40.4891 1.28108 39.8178L22.7099 22.9754C23.1757 22.6092 23.6804 22.3505 24.2239 22.1991C24.7674 22.0454 25.3497 21.9685 25.9708 21.9685ZM25.9708 -2.27555e-06C26.5919 -2.22124e-06 27.1742 0.0768933 27.7177 0.230673C28.2612 0.382011 28.7659 0.64075 29.2317 1.00689L50.6605 17.8494C51.5146 18.5206 51.9602 19.3603 51.9975 20.3684C52.0379 21.3741 51.5922 22.2431 50.6605 22.9754C49.8065 23.6466 48.7195 23.9822 47.3996 23.9822C46.0797 23.9822 44.9927 23.6466 44.1387 22.9754L25.9708 8.78739L7.80289 22.9754C6.94885 23.6466 5.88206 23.9981 4.60254 24.0298C3.31992 24.0591 2.21277 23.7076 1.28108 22.9754C0.427033 22.3041 2.14625e-06 21.4498 2.23694e-06 20.4124C2.32763e-06 19.375 0.427034 18.5206 1.28108 17.8494L22.7099 1.00689C23.1757 0.64075 23.6804 0.382011 24.2239 0.230672C24.7674 0.0768931 25.3497 -2.32985e-06 25.9708 -2.27555e-06Z" fill="#FF3D00"/>
</svg>
