<svg width="52" height="46" viewBox="0 0 52 46" fill="none" xmlns="http://www.w3.org/2000/svg">
    <path d="M26.0292 24.0315C25.4081 24.0315 24.8258 23.9546 24.2823 23.8009C23.7388 23.6495 23.2341 23.3908 22.7683 23.0246L1.33949 6.18215C0.485438 5.51089 0.0397828 4.67121 0.00251527 3.6631C-0.0378579 2.65743 0.407798 1.78846 1.33949 1.05618C2.19353 0.384918 3.2805 0.0492883 4.60039 0.0492883C5.92028 0.0492883 7.00725 0.384918 7.8613 1.05618L26.0292 15.2441L44.1971 1.05618C45.0512 0.384918 46.1179 0.0334221 47.3975 0.00168988C48.6801 -0.0276014 49.7872 0.323894 50.7189 1.05618C51.573 1.72744 52 2.58176 52 3.61916C52 4.65656 51.573 5.51089 50.7189 6.18215L29.2901 23.0246C28.8243 23.3908 28.3196 23.6495 27.7761 23.8009C27.2326 23.9546 26.6503 24.0315 26.0292 24.0315ZM26.0292 46C25.4081 46 24.8258 45.9231 24.2823 45.7693C23.7388 45.618 23.2341 45.3592 22.7683 44.9931L1.33949 28.1506C0.485438 27.4794 0.0397828 26.6397 0.00251527 25.6316C-0.0378579 24.6259 0.407798 23.7569 1.33949 23.0246C2.19353 22.3534 3.2805 22.0178 4.60039 22.0178C5.92028 22.0178 7.00725 22.3534 7.8613 23.0246L26.0292 37.2126L44.1971 23.0246C45.0512 22.3534 46.1179 22.0019 47.3975 21.9702C48.6801 21.9409 49.7872 22.2924 50.7189 23.0246C51.573 23.6959 52 24.5502 52 25.5876C52 26.625 51.573 27.4794 50.7189 28.1506L29.2901 44.9931C28.8243 45.3592 28.3196 45.618 27.7761 45.7693C27.2326 45.9231 26.6503 46 26.0292 46Z" fill="#0047FF"/>
</svg>
