<svg width="54" height="28" viewBox="0 0 54 28" fill="none" xmlns="http://www.w3.org/2000/svg">
    <path d="M27 28C26.3543 28 25.7295 27.8931 25.1257 27.6794C24.5187 27.4656 24.0135 27.1807 23.6099 26.8244L1.33184 7.16031C0.443944 6.37659 0 5.37913 0 4.16794C0 2.95674 0.443944 1.95929 1.33184 1.17557C2.21973 0.391856 3.34978 0 4.72197 0C6.09417 0 7.22422 0.391856 8.11211 1.17557L27 17.8473L45.8879 1.17557C46.7758 0.391856 47.9058 0 49.278 0C50.6502 0 51.7803 0.391856 52.6682 1.17557C53.556 1.95929 54 2.95674 54 4.16794C54 5.37913 53.556 6.37659 52.6682 7.16031L30.3901 26.8244C29.9058 27.2519 29.3812 27.554 28.8161 27.7307C28.2511 27.9102 27.6457 28 27 28Z" fill="#0047FF"/>
</svg>
