<svg width="54" height="28" viewBox="0 0 54 28" fill="none" xmlns="http://www.w3.org/2000/svg">
    <path d="M27 -1.36379e-06C27.6457 -1.30734e-06 28.2705 0.106872 28.8743 0.320613C29.4813 0.534353 29.9866 0.81934 30.3901 1.17557L52.6682 20.8397C53.5561 21.6234 54 22.6209 54 23.8321C54 25.0433 53.5561 26.0407 52.6682 26.8244C51.7803 27.6081 50.6502 28 49.278 28C47.9058 28 46.7758 27.6081 45.8879 26.8244L27 10.1527L8.11211 26.8244C7.22422 27.6081 6.09417 28 4.72197 28C3.34978 28 2.21974 27.6081 1.33185 26.8244C0.443954 26.0407 5.86713e-07 25.0433 6.92599e-07 23.8321C7.98485e-07 22.6209 0.443954 21.6234 1.33185 20.8397L23.6099 1.17557C24.0942 0.748092 24.6188 0.446006 25.1839 0.269314C25.7489 0.0897724 26.3543 -1.42024e-06 27 -1.36379e-06Z" fill="#FF3D00"/>
</svg>
