<svg width="64" height="65" viewBox="0 0 64 65" fill="none" xmlns="http://www.w3.org/2000/svg">
    <g clip-path="url(#clip0_367_584)">
        <path d="M24.0007 35.1666C29.8917 35.1666 34.6673 30.391 34.6673 24.4999C34.6673 18.6089 29.8917 13.8333 24.0007 13.8333C18.1096 13.8333 13.334 18.6089 13.334 24.4999C13.334 30.391 18.1096 35.1666 24.0007 35.1666Z" fill="white"/>
        <path d="M23.9993 40.4999C16.8793 40.4999 2.66602 44.0732 2.66602 51.1666V56.4999H45.3327V51.1666C45.3327 44.0732 31.1193 40.4999 23.9993 40.4999ZM44.6927 14.7933L40.2127 19.2999C42.4527 22.4466 42.4527 26.5266 40.2127 29.6733L44.6927 34.1799C50.0793 28.7933 50.0793 20.6599 44.6927 14.7933ZM53.5193 5.83325L49.1727 10.1799C56.5593 18.2333 56.5593 30.3399 49.1727 38.8199L53.5193 43.1666C63.9193 32.7932 63.946 16.6333 53.5193 5.83325Z" fill="white"/>
    </g>
    <defs>
        <clipPath id="clip0_367_584">
            <rect width="64" height="64" fill="white" transform="translate(0 0.5)"/>
        </clipPath>
    </defs>
</svg>
