<svg width="283" height="283" viewBox="0 0 283 283" fill="none" xmlns="http://www.w3.org/2000/svg">
    <path opacity="0.3" d="M24.9612 76.9251C17.3372 104.835 18.4126 140.911 57.8402 167.689H225.195C225.195 167.689 260.202 156.663 261.657 116.319C263.111 75.9742 249.844 21.1118 203.07 24.7455C156.296 28.3792 134.058 41.7255 103.035 32.8733C102.39 32.6865 101.745 32.511 101.1 32.3469C67.9093 23.6531 34.0116 43.8367 24.9669 76.9307L24.9612 76.9251Z" fill="#E6E6E6"/>
    <path d="M191.086 84.5717C191.086 84.5717 174.712 99.0217 180.507 129.835C186.298 160.653 182.839 183.803 182.839 183.803H200.674L203.311 137.946L191.086 84.5717Z" fill="#FFD200"/>
    <path opacity="0.46" d="M191.086 84.5717C191.086 84.5717 174.712 99.0217 180.507 129.835C186.298 160.653 182.839 183.803 182.839 183.803H200.674L203.311 137.946L191.086 84.5717Z" fill="white"/>
    <path d="M103.403 98.3029L90.4414 119.415C84.3569 129.32 86.0209 142.134 94.4317 150.16L106.08 161.276C106.08 161.276 108.395 172.743 112.798 173.207C117.202 173.671 114.423 157.869 114.423 157.869L103.403 98.3085V98.3029Z" fill="#F4A28C"/>
    <path d="M57.8384 82.9869C57.8384 82.9869 67.6641 83.8415 72.5317 89.926C77.3993 96.0105 68.3603 146.775 76.9352 165.295L70.4488 166.919C70.4488 166.919 45.2335 110.523 57.844 82.9925L57.8384 82.9869Z" fill="#F2BF8C"/>
    <path d="M88.4204 154.937H51.5625V183.361H88.4204V154.937Z" fill="#FFD200"/>
    <path d="M121.622 80.8588C121.622 80.8588 96.1917 90.4808 85.2227 124.005L104.07 129.223L121.622 80.8588Z" fill="#18AB00"/>
    <path opacity="0.46" d="M121.622 80.8588C121.622 80.8588 96.1917 90.4808 85.2227 124.005L104.07 129.223L121.622 80.8588Z" fill="white"/>
    <path d="M195.801 160.314L200.674 183.803H216.262H241.047L238.641 160.314H195.801Z" fill="#24285B"/>
    <path d="M260.75 183.803H18.5527V258.43H260.75V183.803Z" fill="#E6E6E6"/>
    <path d="M260.75 183.803H18.5527V193.04H260.75V183.803Z" fill="#A5A5A5"/>
    <path d="M121.689 54.3077C121.689 54.3077 121.395 60.3922 122.572 64.3882C123.047 66.0069 124.779 66.9465 126.392 66.4484C128.396 65.8258 130.926 64.4051 131.475 61.162L133.088 55.7736C133.088 55.7736 133.982 52.3607 130.456 50.0287C126.93 47.6912 121.683 50.5947 121.689 54.3077Z" fill="#F4A28C"/>
    <path d="M132.795 56.7528L136.689 76.3364L125.748 77.7061L127.305 62.9109L132.795 56.7528Z" fill="#F4A28C"/>
    <path d="M123.205 54.5058C124.269 54.5228 126.222 54.4379 128.797 53.8605C128.797 53.8605 126.997 56.583 129.012 59.43C131.027 62.277 134.067 60.8846 134.067 60.8846L133.665 53.0681C133.62 50.7872 132.34 48.7043 130.308 47.6628C129.476 47.2383 128.565 46.8138 127.648 46.4856C125.362 45.6705 122.124 47.3006 120.047 45.8573C119.136 45.2234 117.873 45.8064 117.755 46.9101C117.494 49.3042 118.066 53.0285 121.332 54.2058C121.932 54.4209 122.566 54.5001 123.2 54.5058H123.205Z" fill="#FFD200"/>
    <path d="M128.358 59.2715C128.358 59.2715 128.312 56.9282 130.078 57.0414C131.844 57.1546 131.929 60.545 129.552 60.9525L128.358 59.2772V59.2715Z" fill="#F4A28C"/>
    <path d="M121.7 58.1508L120.092 60.562C119.696 61.1563 120.053 61.9657 120.76 62.0675L123.103 62.4185L121.694 58.1565L121.7 58.1508Z" fill="#F4A28C"/>
    <path opacity="0.31" d="M126.828 66.1314C126.828 66.1314 128.843 65.639 130.309 63.8674C130.309 63.8674 130.292 67.5238 126.426 71.2764L126.828 66.1258V66.1314Z" fill="#CE8172"/>
    <path d="M57.5736 57.8565C57.5736 57.8565 58.2867 63.9071 57.3868 67.9709C57.0246 69.618 55.3662 70.6764 53.7191 70.2916C51.6759 69.8105 49.0553 68.5653 48.2799 65.373L46.2989 60.1092C46.2989 60.1092 45.1725 56.7698 48.5289 54.1945C51.8853 51.6192 57.3189 54.1492 57.5679 57.8565H57.5736Z" fill="#F2BF8C"/>
    <path d="M46.655 61.0601L44.125 80.8644L55.1394 81.4813L52.5584 66.8219L46.655 61.0601Z" fill="#F2BF8C"/>
    <path d="M57.8223 61.694L59.5882 63.9863C60.024 64.5523 59.724 65.3786 59.0278 65.5371L56.7129 66.0465L57.8223 61.694Z" fill="#F2BF8C"/>
    <path opacity="0.03" d="M53.2589 70.0085C53.2589 70.0085 51.2157 69.6576 49.6309 67.9935C49.6309 67.9935 49.8969 71.6386 54.0174 75.1195L53.2589 70.0085Z" fill="#000001"/>
    <path d="M199.253 54.6869C199.253 54.6869 198.959 60.7714 200.136 64.7674C200.612 66.3861 202.344 67.3257 203.957 66.8276C205.961 66.205 208.491 64.7844 209.04 61.5412L210.653 56.1529C210.653 56.1529 211.547 52.7399 208.021 50.408C204.495 48.0704 199.248 50.974 199.253 54.6869Z" fill="#9B6448"/>
    <path d="M210.365 57.132L214.259 76.71L203.312 78.0853L204.875 63.2844L210.365 57.132Z" fill="#9B6448"/>
    <path d="M199.27 58.53L197.663 60.9412C197.266 61.5355 197.623 62.3449 198.331 62.4467L200.674 62.7977L199.264 58.5357L199.27 58.53Z" fill="#9B6448"/>
    <path opacity="0.03" d="M204.394 66.5106C204.394 66.5106 206.409 66.0182 207.875 64.2466C207.875 64.2466 207.858 67.903 203.992 71.6556L204.394 66.505V66.5106Z" fill="#000001"/>
    <path d="M125.747 77.7061L136.694 76.3307C136.694 76.3307 164.015 73.4328 171.644 99.3839C179.274 125.335 163.381 160.308 163.381 160.308H111.241C111.241 160.308 74.1395 94.2956 125.753 77.7061H125.747Z" fill="#18AB00"/>
    <path d="M202.786 77.7061L213.733 76.3307C213.733 76.3307 241.053 73.4328 248.683 99.3839C256.313 125.335 240.42 160.308 240.42 160.308H195.807C195.807 160.308 162.442 89.9034 202.792 77.7061H202.786Z" fill="#FFD200"/>
    <path d="M199.396 53.6455H206.974L205.927 58.264L208.355 58.5301L211.146 61.0374L211.536 52.8531C211.536 52.8531 211.644 49.7797 209.895 48.6137C208.146 47.4478 198.292 45.0027 199.401 53.6455H199.396Z" fill="#24285B"/>
    <path opacity="0.08" d="M216.618 89.9204C216.618 89.9204 204.761 104.319 222.992 118.271C241.217 132.229 216.8 160.308 216.8 160.308H238.647L257.67 130.372L248.631 104.11L218.424 89.9147H216.618V89.9204Z" fill="#000001"/>
    <path d="M111.23 160.314L108.678 183.803H166.144L161.508 159.997L111.23 160.314Z" fill="#24285B"/>
    <path d="M205.91 58.864C205.91 58.864 205.865 56.5207 207.631 56.6339C209.397 56.7471 209.482 60.1375 207.105 60.545L205.91 58.8696V58.864Z" fill="#9B6448"/>
    <path d="M211.887 87.5602C214.128 78.6683 224.684 74.7912 232.467 79.6362C239.1 83.768 247.602 90.9505 255.605 103.267C272.138 128.703 265.357 149.469 236.316 160.919L229.959 153.075C229.959 153.075 251.79 135.755 238.863 117.603C228.703 103.34 208.627 100.493 211.887 87.5602Z" fill="#FFD200"/>
    <path d="M45.8236 64.7391C45.8236 64.7391 51.093 66.788 53.5438 59.8602L60.1603 59.1357C60.1603 59.1357 58.1793 51.6758 52.9891 50.0627C47.7989 48.4496 36.7336 53.3851 45.8179 64.7448L45.8236 64.7391Z" fill="#24285B"/>
    <path opacity="0.08" d="M142.415 86.6998C142.415 86.6998 129.069 96.0728 137.406 115.962C145.749 135.857 136.687 160.308 136.687 160.308L161.507 159.991L163.357 121.582L142.41 86.6998H142.415Z" fill="#000001"/>
    <path opacity="0.46" d="M211.887 87.5602C214.128 78.6683 224.684 74.7912 232.467 79.6362C239.1 83.768 247.602 90.9505 255.605 103.267C272.138 128.703 265.357 149.469 236.316 160.919L229.959 153.075C229.959 153.075 251.79 135.755 238.863 117.603C228.703 103.34 208.627 100.493 211.887 87.5602Z" fill="white"/>
    <path d="M144.804 96.2369C142.212 85.7376 154.63 78.2381 162.939 85.1603C166.641 88.245 170.014 92.6542 171.853 98.9651C177.457 118.198 166.143 183.803 166.143 183.803H153.628C153.628 183.803 156.639 148.162 153.86 129.303C151.93 116.211 147.193 105.91 144.804 96.2369Z" fill="#F4A28C"/>
    <path d="M52.0762 63.4316C52.0762 63.4316 51.9573 61.0884 50.2027 61.3261C48.4481 61.5581 48.5953 64.9485 51.0008 65.1919L52.0762 63.4373V63.4316Z" fill="#F2BF8C"/>
    <path d="M39.4896 57.9414C42.1936 57.9414 44.3856 55.7494 44.3856 53.0455C44.3856 50.3416 42.1936 48.1496 39.4896 48.1496C36.7857 48.1496 34.5938 50.3416 34.5938 53.0455C34.5938 55.7494 36.7857 57.9414 39.4896 57.9414Z" fill="#24285B"/>
    <path d="M44.1252 80.8644L55.1396 81.4813C55.1396 81.4813 83.0377 95.5068 77.7852 113.098C72.5327 130.689 70.3027 151.071 70.3027 151.071H34.5938C34.5938 151.071 1.19976 93.7635 44.1252 80.87V80.8644Z" fill="#18AB00"/>
    <path d="M39.4615 82.4832C39.4615 82.4832 38.5842 75.3516 47.0402 76.2345C55.4962 77.1175 59.362 77.259 57.8338 82.9812C57.8338 82.9812 45.4611 89.0827 39.4558 82.4832H39.4615Z" fill="#18AB00"/>
    <path opacity="0.08" d="M27.5801 113.092C27.5801 113.092 31.293 140.549 46.1166 151.065H70.3018L72.4582 136.423L60.159 136.785L27.5801 113.092Z" fill="#000001"/>
    <path d="M231.148 154.535C231.148 154.535 222.585 160.45 225.986 164.468C229.382 168.487 236.321 160.914 236.321 160.914L231.148 154.535Z" fill="#9B6448"/>
    <path d="M54.7999 104.818C50.8322 93.7465 35.3861 92.2863 29.9129 102.695C29.1148 104.212 28.5884 105.893 28.4469 107.744C27.8866 115.249 38.584 131.063 47.0796 142.332C52.5302 149.56 62.7012 151.213 70.1781 146.102L95.4896 128.799C95.4896 128.799 104.755 128.352 106.459 124.226C108.157 120.1 93.9444 121.356 93.9444 121.356L71.3101 132.897C66.867 135.161 61.507 132.495 60.624 127.588C59.4637 121.158 57.5846 112.583 54.7999 104.818Z" fill="#F2BF8C"/>
    <path d="M158.564 81.4813C158.564 81.4813 182.359 92.0033 174.944 132.619H149.458C149.458 132.619 146.639 114.083 142.371 99.2537C138.104 84.4245 147.98 76.4553 158.564 81.4813Z" fill="#18AB00"/>
    <path opacity="0.46" d="M158.564 81.4813C158.564 81.4813 182.359 92.0033 174.944 132.619H149.458C149.458 132.619 146.639 114.083 142.371 99.2537C138.104 84.4245 147.98 76.4553 158.564 81.4813Z" fill="white"/>
    <path d="M34.5928 151.065L27.5801 183.803H78.4408L70.3018 151.065H34.5928Z" fill="#24285B"/>
</svg>
